<?xml version="1.0" encoding="UTF-8" standalone="no"?>
<!-- Created with Inkscape (http://www.inkscape.org/) -->
<svg xmlns:svg="http://www.w3.org/2000/svg" xmlns="http://www.w3.org/2000/svg" version="1.0" width="371.92499" height="447.20624" id="svg14839">
  <defs id="defs14841">
    <clipPath id="id71">
      <path d="M 553.78,493.2 L 587.78,493.2 L 587.78,457.2 L 553.78,457.2 L 553.78,493.2 z" id="path154"/>

    </clipPath>
  </defs>
  <g transform="translate(0, -0.91869)" id="layer1">
    <g transform="matrix(0.25, 0, 0, 0.25, 130.521, 180.444)" id="g14951">
      <path d="M -512.5074,-708.40015 L 956.3426,-708.40015 L 956.3426,-244.60015 L -512.5074,-244.60015 L -512.5074,-708.40015 z" id="path4471" style="fill: rgb(186, 15, 39); fill-rule: nonzero; stroke: none;"/>
      <g transform="matrix(50, 0, 0, -50, -28319.3, 23941.9)" clip-path="url(#id71)" id="g4473">
        <path d="M 556.213,492.936 C 556.215,490.17 556.221,486.325 556.226,483.802 L 585.412,483.802 L 556.226,483.802 C 556.229,482.257 556.231,481.207 556.231,481.207 C 556.231,466.754 570.7,457.692 570.7,457.692 C 570.7,457.692 585.422,466.378 585.427,481.196 C 585.43,492.936 585.43,492.936 585.43,492.936 L 556.213,492.936 z" id="path4475" style="fill: none; stroke: rgb(36, 31, 32); stroke-width: 0.537; stroke-linecap: butt; stroke-linejoin: miter; stroke-miterlimit: 4;"/>

      </g>
      <path d="M -67.4074,-564.35015 L -70.2574,-566.05015 C -87.4574,-576.40015 -85.7074,-594.50015 -84.6574,-605.30015 C -83.9074,-613.20015 -84.0074,-616.40015 -85.0074,-618.20015 L -193.9074,-620.45015 C -201.1074,-618.85015 -208.3074,-618.20015 -215.2574,-617.70015 C -228.1074,-616.70015 -239.2074,-615.90015 -247.5574,-609.25015 L -253.3574,-604.65015 L -260.2574,-607.20015 L -277.7074,-613.75015 L -322.2074,-620.45015 C -340.8574,-620.85015 -359.6074,-620.10015 -377.7574,-619.30015 C -393.7574,-618.65015 -410.4074,-618.15015 -427.2574,-618.25015 C -428.8574,-614.80015 -428.8574,-610.15015 -428.4074,-602.25015 C -427.8574,-592.40015 -427.1574,-580.20015 -434.9574,-569.55015 L -438.3074,-565.00015 L -443.9074,-564.30015 C -452.4074,-563.30015 -459.6074,-561.20015 -467.1574,-558.20015 C -467.3074,-556.65015 -467.4074,-555.00015 -467.4574,-553.30015 C -467.4574,-553.30015 -467.6074,-550.70015 -467.6074,-551.65015 C -467.5574,-547.85015 -467.5074,-547.30015 -455.2074,-545.95015 C -449.5074,-545.35015 -443.6074,-544.70015 -438.0574,-542.35015 L -431.9074,-539.80015 L -430.4074,-533.25015 C -425.5074,-511.65015 -427.1074,-489.40015 -428.6074,-467.90015 C -429.3574,-457.60015 -430.1074,-446.90015 -430.1074,-436.70015 L -430.4074,-439.50015 C -428.6574,-431.60015 -429.7574,-424.90015 -433.8074,-419.65015 C -440.3074,-411.25015 -450.9074,-410.85015 -458.6574,-410.60015 C -459.6574,-410.55015 -460.7074,-410.50015 -461.7574,-410.45015 C -461.9574,-410.15015 -462.2074,-409.80015 -462.4574,-409.50015 C -463.6074,-408.05015 -465.1074,-406.10015 -465.7074,-405.00015 L -465.2574,-403.75015 L -465.2574,-401.45015 C -465.2574,-400.45015 -465.0074,-399.80015 -461.2574,-397.25015 C -459.8074,-396.90015 -458.3074,-396.55015 -456.5574,-396.25015 C -448.9074,-394.95015 -437.3074,-392.95015 -431.0074,-380.50015 C -427.0074,-370.35015 -427.2074,-359.20015 -427.4074,-349.30015 C -427.5074,-343.50015 -427.3574,-338.30015 -426.6074,-334.05015 C -424.0574,-332.45015 -420.5574,-332.05015 -413.7574,-332.35015 C -411.3074,-332.50015 -408.8074,-332.55015 -406.3074,-332.50015 C -390.7074,-334.25015 -375.0074,-334.10015 -359.8074,-333.90015 C -345.8574,-333.70015 -332.7574,-333.50015 -320.2574,-334.80015 L -319.1574,-334.90015 L -318.0074,-334.85015 L -285.2074,-332.50015 L -281.7574,-332.25015 L -278.8574,-330.30015 C -276.5074,-328.70015 -274.2074,-327.05015 -271.9574,-325.45015 C -264.2074,-319.85015 -256.9074,-314.60015 -250.7074,-313.75015 C -247.0574,-313.70015 -243.1074,-317.50015 -237.9574,-322.90015 C -235.8574,-325.15015 -233.6574,-327.40015 -231.3074,-329.40015 L -228.1074,-332.15015 L -223.9074,-332.50015 C -199.8074,-334.35015 -174.1574,-333.55015 -149.3574,-332.75015 C -128.2074,-332.10015 -106.4074,-331.45015 -86.4074,-332.50015 L -86.3574,-332.50015 C -85.0074,-339.45015 -84.9074,-346.45015 -85.4074,-354.80015 C -85.7074,-360.00015 -86.0074,-365.35015 -85.8574,-372.40015 C -83.6074,-394.25015 -64.0574,-393.50015 -57.6574,-393.25015 C -55.9074,-393.20015 -53.4574,-393.10015 -52.4074,-393.35015 L -51.5074,-394.05015 L -49.7574,-394.80015 C -47.3074,-395.80015 -45.5574,-400.30015 -44.1074,-404.85015 C -44.4074,-406.70015 -45.0074,-407.85015 -47.2574,-409.40015 L -49.5074,-410.85015 L -50.4574,-412.25015 C -51.7074,-412.60015 -54.5574,-412.65015 -56.6074,-412.65015 C -63.6574,-412.75015 -73.2574,-412.80015 -81.3574,-419.70015 L -85.9574,-423.60015 L -85.9574,-519.75015 L -85.7574,-520.80015 C -82.1074,-542.90015 -62.4574,-543.30015 -53.0574,-543.50015 C -44.8074,-543.65015 -43.1074,-544.15015 -42.6074,-545.10015 L -41.4074,-547.75015 C -40.2574,-550.20015 -37.8574,-555.25015 -38.2074,-556.85015 C -43.9074,-562.70015 -54.9574,-563.90015 -64.0574,-564.25015 L -67.4074,-564.35015" id="path4477" style="fill: rgb(255, 255, 255); fill-rule: nonzero; stroke: none;"/>
      <path d="M -79.9574,-631.10015 C -59.5074,-618.70015 -83.9074,-589.45015 -63.5574,-577.25015 C -50.7074,-576.75015 -37.0574,-574.80015 -28.4074,-565.50015 C -21.4074,-557.20015 -27.3074,-547.45015 -30.7574,-539.75015 C -39.9574,-521.10015 -69.2574,-540.60015 -72.9074,-518.65015 L -72.9074,-429.65015 C -63.4074,-421.50015 -46.8074,-430.30015 -40.1074,-420.25015 C -33.1574,-415.65015 -31.2074,-410.75015 -30.7574,-403.85015 C -33.1574,-396.15015 -36.0574,-386.35015 -44.8074,-382.75015 C -53.6574,-375.65015 -71.2074,-387.35015 -72.9074,-371.05015 C -73.1574,-353.20015 -69.2574,-338.55015 -75.2574,-321.85015 L -84.6574,-319.50015 C -128.8074,-317.05015 -178.6074,-322.90015 -222.9074,-319.50015 C -230.3574,-313.15015 -238.1574,-300.45015 -251.0074,-300.75015 C -264.5074,-302.40015 -275.2574,-312.15015 -286.1574,-319.50015 L -318.9574,-321.85015 C -346.5074,-319.00015 -376.8074,-322.90015 -405.6574,-319.50015 C -415.8574,-320.00015 -429.5074,-316.10015 -438.4574,-326.55015 C -443.1574,-340.50015 -437.3074,-361.00015 -443.1074,-375.75015 C -447.0574,-383.45015 -457.8074,-382.45015 -466.5574,-385.10015 C -471.5074,-388.30015 -478.3074,-392.20015 -478.2574,-401.50015 C -481.2574,-409.80015 -473.4574,-415.65015 -468.9074,-422.60015 C -458.8074,-425.40015 -439.2574,-419.55015 -443.1074,-436.65015 C -443.1574,-468.40015 -436.3574,-500.60015 -443.1074,-530.35015 C -455.8574,-535.75015 -480.2574,-528.90015 -480.6074,-551.45015 C -480.2574,-557.20015 -480.2574,-563.05015 -478.2574,-567.85015 C -467.5574,-572.85015 -457.8074,-575.75015 -445.4574,-577.25015 C -434.4074,-592.35015 -450.0074,-615.80015 -433.7574,-631.10015 C -395.3574,-630.45015 -359.2074,-634.35015 -321.3074,-633.45015 L -274.4074,-626.45015 L -255.6574,-619.40015 C -238.1574,-633.35015 -214.7074,-628.50015 -194.7574,-633.45015 L -79.9574,-631.10015 z" id="path4479" style="fill: rgb(0, 0, 0); fill-rule: nonzero; stroke: rgb(0, 0, 0); stroke-width: 3; stroke-linecap: butt; stroke-linejoin: miter; stroke-miterlimit: 4;"/>
      <path d="M -129.1574,-610.05015 C -134.6574,-623.60015 -151.2574,-614.80015 -161.9574,-619.40015 C -190.3074,-611.90015 -221.5574,-626.55015 -243.9574,-605.35015 C -255.7074,-593.35015 -245.9574,-567.95015 -251.0074,-551.45015 C -250.8574,-533.80015 -246.9574,-515.25015 -251.0074,-499.90015 C -248.9074,-460.55015 -248.9074,-418.60015 -248.6574,-375.75015 L -246.3074,-375.75015 C -214.7074,-391.25015 -175.6574,-384.40015 -140.8574,-385.10015 L -133.8574,-389.80015 C -127.8574,-411.75015 -133.7074,-431.30015 -133.8574,-453.05015 L -129.1574,-610.05015" id="path4481" style="fill: rgb(255, 255, 255); fill-rule: nonzero; stroke: none;"/>
      <path d="M -405.6574,-614.75015 C -411.9074,-619.70015 -420.7074,-617.75015 -426.7074,-614.75015 C -433.4074,-601.15015 -418.7574,-567.95015 -443.1074,-563.20015 C -452.9574,-561.10015 -465.6074,-565.00015 -468.9074,-553.80015 C -464.6574,-543.55015 -450.9574,-543.55015 -438.4574,-544.45015 C -431.4574,-543.55015 -429.5074,-534.75015 -429.0574,-528.05015 C -428.5074,-517.20015 -426.5574,-504.50015 -429.0574,-492.90015 C -426.5574,-469.35015 -426.5574,-448.85015 -429.0574,-424.95015 C -429.5074,-403.95015 -454.9074,-416.65015 -466.5574,-406.20015 C -467.5574,-389.30015 -444.1574,-398.10015 -436.1074,-389.80015 C -427.5574,-382.45015 -428.5074,-371.75015 -429.0574,-361.70015 C -426.5574,-353.20015 -432.4574,-343.40015 -426.7074,-335.90015 C -380.7074,-332.70015 -331.8574,-330.70015 -286.1574,-333.55015 C -285.0074,-336.60015 -286.0074,-340.50015 -288.5074,-342.95015 L -318.9574,-342.95015 C -347.5074,-341.45015 -377.7574,-346.35015 -407.9574,-345.30015 C -411.9074,-345.35015 -418.7574,-350.25015 -419.7074,-354.65015 C -421.7074,-437.15015 -417.8074,-510.35015 -419.7074,-591.30015 C -415.8574,-601.15015 -404.1074,-605.05015 -405.6574,-614.75015" id="path4483" style="fill: rgb(255, 255, 255); fill-rule: nonzero; stroke: none;"/>
      <path d="M -269.7574,-610.05015 C -302.6074,-624.60015 -339.7074,-614.80015 -375.1574,-617.05015 C -380.7074,-616.75015 -380.7074,-612.85015 -382.2074,-610.05015 C -384.6074,-536.70015 -382.6574,-463.50015 -384.5574,-389.80015 L -379.8574,-382.75015 C -340.6574,-384.40015 -304.5574,-387.35015 -267.4074,-378.10015 L -265.0574,-380.45015 C -262.5574,-439.10015 -262.5574,-495.70015 -262.7074,-551.45015 C -266.4574,-571.85015 -253.7574,-592.35015 -269.7574,-610.05015" id="path4485" style="fill: rgb(255, 255, 255); fill-rule: nonzero; stroke: none;"/>
      <path d="M -87.0074,-612.40015 L -89.3074,-617.05015 C -96.6074,-617.75015 -107.3574,-619.70015 -112.7574,-614.75015 C -107.3574,-602.10015 -92.7074,-596.25015 -94.0074,-579.60015 C -97.5574,-506.45015 -94.6574,-433.25015 -98.7074,-357.00015 C -99.5074,-352.20015 -101.5074,-345.35015 -108.0574,-345.30015 C -140.5574,-337.55015 -177.6574,-349.25015 -211.1574,-345.30015 C -215.7074,-342.45015 -224.5074,-341.45015 -225.2074,-335.90015 C -181.5574,-333.65015 -134.6574,-331.70015 -91.6574,-333.55015 C -81.0074,-342.45015 -86.8574,-364.90015 -84.6574,-380.45015 C -82.9574,-398.10015 -60.4574,-394.20015 -47.1574,-399.15015 C -44.8574,-425.40015 -80.0074,-401.00015 -87.0074,-422.60015 C -85.8574,-461.55015 -85.8574,-501.55015 -84.6574,-537.40015 C -77.0574,-553.30015 -53.6574,-541.60015 -42.4574,-549.10015 C -39.9574,-550.40015 -38.0074,-555.25015 -40.1074,-558.50015 C -48.7574,-564.05015 -62.4574,-563.05015 -70.6074,-560.85015 C -94.6574,-570.90015 -82.9574,-593.35015 -87.0074,-612.40015" id="path4487" style="fill: rgb(255, 255, 255); fill-rule: nonzero; stroke: none;"/>
      <path d="M -396.2574,-586.60015 C -395.3574,-591.40015 -394.3574,-596.25015 -396.2574,-603.00015 C -399.2574,-604.10015 -402.1574,-599.20015 -403.3074,-598.30015 C -410.9574,-567.00015 -406.0574,-536.70015 -405.6574,-509.30015 C -409.0074,-485.95015 -407.0574,-465.45015 -407.9574,-446.00015 C -405.1074,-418.60015 -409.0074,-395.15015 -407.9574,-368.70015 L -403.3074,-368.70015 C -391.4574,-390.25015 -398.2574,-419.55015 -396.2574,-441.35015 C -398.2574,-488.90015 -393.4074,-538.65015 -396.2574,-586.60015" id="path4489" style="fill: rgb(255, 255, 255); fill-rule: nonzero; stroke: none;"/>
      <path d="M -105.7574,-584.25015 C -106.3574,-589.45015 -113.2074,-599.20015 -117.4574,-591.30015 C -118.0574,-545.50015 -120.0574,-505.50015 -119.8074,-457.75015 C -122.0074,-440.05015 -118.0574,-420.55015 -122.1574,-403.85015 C -116.1074,-393.20015 -125.9074,-377.60015 -112.7574,-371.05015 L -110.4074,-371.05015 C -109.3074,-407.85015 -106.3574,-445.90015 -110.4074,-483.50015 L -105.7574,-584.25015" id="path4491" style="fill: rgb(255, 255, 255); fill-rule: nonzero; stroke: none;"/>
      <path d="M -161.9574,-549.10015 L -169.0074,-556.15015 C -188.3574,-554.30015 -207.9074,-560.15015 -225.2074,-551.45015 C -226.4574,-546.45015 -221.5574,-542.55015 -218.2074,-539.75015 C -219.6074,-518.15015 -214.7074,-492.80015 -218.2074,-471.80015 C -217.6574,-464.45015 -229.3574,-457.65015 -222.9074,-450.70015 C -203.0074,-447.85015 -181.5574,-447.85015 -161.9574,-448.35015 L -154.9574,-453.05015 C -154.2074,-459.60015 -154.2074,-467.40015 -157.2574,-471.80015 C -165.9074,-474.25015 -166.9074,-464.45015 -171.3574,-460.10015 C -178.6074,-456.65015 -186.4074,-458.60015 -194.7574,-460.10015 C -205.9574,-467.40015 -200.1074,-484.00015 -199.4574,-495.25015 C -191.3074,-504.50015 -183.5074,-488.90015 -176.0074,-492.90015 C -169.8074,-496.70015 -172.7574,-502.55015 -173.6574,-509.30015 C -178.6074,-524.00015 -188.3574,-502.55015 -197.1074,-509.30015 C -204.0074,-519.15015 -199.1074,-531.85015 -199.4574,-542.10015 C -194.2074,-548.45015 -184.4574,-543.55015 -178.3574,-542.10015 C -170.8074,-540.60015 -168.8574,-528.90015 -161.9574,-532.70015 C -159.0574,-537.70015 -160.0574,-544.50015 -161.9574,-549.10015" id="path4493" style="fill: rgb(0, 0, 0); fill-rule: nonzero; stroke: none;"/>
      <path d="M -279.1074,-551.45015 C -286.0074,-557.20015 -299.6574,-557.20015 -304.9074,-551.45015 C -301.6074,-539.65015 -301.6074,-528.90015 -307.2074,-518.65015 C -311.3574,-512.30015 -308.4574,-502.55015 -316.6074,-497.55015 C -324.0574,-505.50015 -324.0574,-518.15015 -330.6574,-528.05015 C -333.8074,-535.75015 -330.9074,-544.50015 -330.6574,-551.45015 C -340.6574,-557.20015 -354.3574,-556.25015 -363.4574,-551.45015 C -362.1574,-544.50015 -354.3574,-539.65015 -349.4074,-532.70015 C -343.6074,-510.35015 -334.8074,-486.95015 -325.9574,-464.75015 C -322.1074,-461.55015 -316.2574,-463.50015 -314.2574,-467.10015 C -304.5574,-487.90015 -302.6074,-509.40015 -293.1574,-530.35015 C -291.8574,-538.65015 -280.1574,-543.55015 -279.1074,-551.45015" id="path4495" style="fill: rgb(0, 0, 0); fill-rule: nonzero; stroke: none;"/>
      <path d="M -122.1574,-361.70015 L -129.1574,-371.05015 C -159.0574,-373.70015 -191.3074,-369.75015 -220.5574,-371.05015 C -228.4074,-368.80015 -238.1574,-366.85015 -241.6074,-359.35015 C -241.1074,-356.10015 -237.2074,-353.20015 -232.2574,-352.30015 C -198.1074,-361.95015 -157.1074,-353.20015 -122.1574,-357.00015 L -122.1574,-361.70015" id="path4497" style="fill: rgb(255, 255, 255); fill-rule: nonzero; stroke: none;"/>
      <path d="M -293.1574,-368.70015 L -379.8574,-371.05015 C -387.5074,-371.75015 -392.4074,-364.90015 -396.2574,-357.00015 C -356.3074,-355.15015 -317.2074,-359.05015 -279.1074,-354.65015 C -275.2574,-355.15015 -272.3074,-357.10015 -272.1074,-361.70015 C -276.2074,-367.80015 -286.9574,-366.85015 -293.1574,-368.70015" id="path4499" style="fill: rgb(255, 255, 255); fill-rule: nonzero; stroke: none;"/>
      <path d="M -241.6074,-340.60015 C -244.0074,-346.35015 -250.8574,-353.20015 -258.0074,-354.65015 C -262.5574,-354.15015 -264.5074,-349.25015 -267.4074,-345.30015 C -271.3574,-337.55015 -272.3074,-322.90015 -262.7074,-317.15015 C -255.7074,-314.15015 -249.8574,-319.00015 -243.9574,-319.50015 C -238.1574,-324.85015 -239.1574,-332.70015 -241.6074,-340.60015" id="path4501" style="fill: rgb(255, 255, 255); fill-rule: nonzero; stroke: none;"/>
      <path d="M 442.5926,-405.35015 C 439.8426,-407.80015 435.9426,-409.20015 432.4926,-409.70015 C 432.4926,-409.70015 429.9426,-410.10015 429.7426,-410.20015 L 427.6426,-411.50015 C 426.9426,-411.60015 424.8926,-411.30015 423.5426,-411.10015 C 418.0926,-410.30015 406.6926,-408.60015 398.3926,-419.25015 L 396.1926,-422.05015 L 395.7426,-425.55015 C 393.3926,-443.05015 394.2426,-461.30015 395.0926,-478.95015 C 395.7926,-492.55015 396.4426,-506.65015 395.6426,-520.25015 L 395.4926,-522.95015 L 396.4426,-525.50015 C 402.9426,-543.20015 419.6426,-542.40015 427.6426,-542.00015 C 429.6926,-541.90015 432.7426,-541.85015 434.1926,-542.15015 C 437.2426,-547.15015 440.2926,-552.40015 440.1426,-555.30015 C 440.0926,-556.20015 439.0426,-557.15015 434.7926,-560.10015 C 433.5926,-560.95015 432.1926,-562.05015 430.7926,-563.10015 C 429.9426,-563.10015 428.8426,-563.00015 427.9426,-562.95015 C 421.9926,-562.50015 409.5426,-561.55015 402.3926,-572.45015 L 400.9926,-574.65015 L 400.5426,-577.15015 C 398.6426,-587.20015 397.9426,-595.50015 397.1926,-604.30015 C 396.9426,-607.50015 396.5926,-611.10015 396.2426,-614.60015 C 392.7926,-616.80015 387.3426,-617.60015 378.4926,-617.90015 C 378.4926,-617.90015 372.8426,-618.15015 373.3926,-618.10015 C 339.9926,-618.40015 305.9926,-619.40015 271.1926,-620.45015 C 254.5926,-619.50015 236.9426,-613.85015 222.7926,-609.35015 L 217.5926,-607.70015 L 212.7926,-610.25015 C 196.8426,-618.65015 174.6926,-622.35015 151.9926,-620.50015 C 145.3426,-620.40015 139.9926,-620.50015 134.8426,-620.65015 C 126.2926,-620.80015 118.2426,-621.00015 110.4926,-620.55015 C 98.8926,-619.00015 88.8426,-620.10015 79.1426,-621.20015 C 69.0926,-622.35015 60.2426,-623.10015 50.3426,-621.00015 C 46.6426,-618.30015 46.9426,-607.05015 47.1926,-598.50015 C 47.4426,-592.00015 47.5926,-585.85015 46.5926,-580.20015 C 44.3426,-560.20015 22.4426,-561.35015 14.1426,-561.80015 C 11.8926,-561.90015 9.7926,-561.95015 7.9926,-561.90015 C 4.1426,-560.75015 0.4426,-557.15015 -0.3574,-553.65015 C -1.7074,-546.55015 -1.8574,-545.80015 14.7426,-542.35015 C 22.4426,-540.75015 31.1926,-538.95015 38.4426,-534.30015 L 43.4426,-531.10015 L 44.2926,-525.25015 C 47.6426,-502.65015 47.2926,-480.40015 46.9426,-456.85015 L 46.7926,-434.35015 C 46.7926,-434.35015 46.7426,-433.65015 46.7426,-433.50015 L 46.6926,-432.85015 C 44.0926,-410.05015 22.9426,-411.40015 14.9426,-411.95015 C 12.1926,-412.10015 7.0426,-412.45015 4.9926,-411.25015 C 3.4426,-410.40015 -0.1574,-408.35015 -0.1074,-399.25015 L -0.1074,-397.45015 L -0.5574,-395.70015 C -0.6574,-395.40015 -0.6074,-395.40015 -0.6574,-395.30015 C -0.1574,-394.80015 1.2426,-393.75015 3.0926,-393.25015 C 5.6926,-392.85015 9.1426,-392.95015 12.7926,-393.10015 C 21.6426,-393.50015 33.7426,-394.00015 42.8426,-385.05015 L 45.8426,-382.10015 L 46.5926,-377.95015 C 47.7426,-371.25015 47.4926,-363.85015 47.2926,-356.65015 C 47.0426,-347.40015 46.9426,-337.40015 49.9426,-332.00015 C 60.9426,-330.80015 72.4426,-331.00015 84.6426,-331.45015 C 98.7926,-332.00015 113.4426,-332.40015 127.5426,-330.15015 C 138.1426,-330.55015 149.0926,-330.35015 159.6926,-330.10015 C 171.2426,-329.85015 182.1426,-329.65015 192.3926,-330.15015 L 199.0426,-330.50015 L 203.1926,-325.35015 C 209.9426,-316.95015 216.0926,-313.15015 224.2426,-311.85015 C 229.7926,-313.85015 234.0926,-317.85015 238.8926,-322.75015 C 240.0926,-324.00015 241.2926,-325.25015 242.5426,-326.45015 L 246.0426,-329.90015 L 250.9426,-330.15015 C 270.2426,-331.20015 288.6426,-330.15015 306.4926,-329.15015 C 321.2426,-328.30015 335.2426,-327.55015 349.7926,-327.85015 L 350.4426,-327.85015 L 351.1426,-327.80015 L 375.6426,-325.75015 C 381.8926,-328.50015 387.6426,-328.70015 391.6426,-328.70015 C 392.3926,-328.70015 392.9926,-328.75015 393.7426,-328.80015 C 394.3926,-331.05015 394.6926,-334.00015 394.7426,-337.45015 C 394.7926,-340.35015 395.1926,-343.70015 395.5926,-347.00015 L 395.3426,-349.70015 C 393.8926,-362.45015 391.7926,-381.70015 406.0926,-391.25015 L 410.1926,-394.00015 L 415.0426,-393.30015 C 426.8426,-391.75015 435.3426,-391.85015 439.9926,-395.75015 C 439.9926,-395.80015 440.0426,-395.85015 440.0426,-395.90015 C 441.3926,-399.50015 442.3426,-402.70015 442.5926,-405.35015" id="path4503" style="fill: rgb(255, 255, 255); fill-rule: nonzero; stroke: none;"/>
      <path d="M 150.8926,-633.45015 C 173.2926,-635.30015 198.6926,-632.40015 218.8426,-621.75015 C 233.8426,-626.55015 252.3926,-632.40015 270.3926,-633.45015 C 307.0426,-632.40015 340.2426,-631.40015 373.4926,-631.10015 C 387.0926,-630.45015 400.7926,-631.40015 408.6426,-621.75015 C 410.5426,-605.05015 410.5426,-594.30015 413.2926,-579.60015 C 418.3426,-571.85015 431.0426,-578.70015 436.7426,-574.90015 C 443.7426,-568.95015 452.4926,-566.00015 453.1426,-556.15015 C 453.4926,-548.45015 448.5926,-540.60015 443.7926,-532.70015 C 433.9426,-523.05015 414.4426,-536.70015 408.6426,-521.00015 C 410.5426,-488.90015 404.6926,-456.65015 408.6426,-427.30015 C 415.3926,-418.60015 425.1926,-428.35015 434.3926,-422.60015 C 441.7926,-421.50015 450.5426,-418.60015 455.4926,-410.90015 C 457.3926,-402.95015 453.4926,-395.15015 450.7926,-387.45015 C 441.7926,-377.60015 427.1426,-378.55015 413.2926,-380.45015 C 404.6926,-374.65015 407.5926,-358.05015 408.6426,-347.60015 C 406.6426,-338.55015 409.5426,-327.80015 403.9426,-319.50015 C 396.8426,-312.15015 388.0926,-319.00015 378.1926,-312.50015 L 350.0426,-314.80015 C 316.8426,-314.15015 285.5926,-319.00015 251.6426,-317.15015 C 244.5926,-310.20015 237.7426,-301.45015 225.8926,-298.40015 C 212.3426,-299.50015 202.5926,-305.35015 193.0426,-317.15015 C 172.3426,-316.10015 148.8926,-318.05015 127.4426,-317.15015 C 101.0426,-321.95015 70.7926,-315.10015 43.1426,-319.50015 C 28.8426,-331.70015 36.6426,-359.05015 33.7426,-375.75015 C 25.8926,-383.45015 12.2426,-378.55015 0.9426,-380.45015 C -7.3074,-382.45015 -16.1074,-388.30015 -13.1074,-399.15015 C -13.1574,-408.80015 -10.2074,-417.60015 -1.4074,-422.60015 C 10.2926,-430.30015 31.7426,-416.65015 33.7426,-434.30015 C 33.6926,-465.45015 35.6426,-494.75015 31.3926,-523.35015 C 15.1426,-533.80015 -19.0074,-525.95015 -13.1074,-556.15015 C -11.2074,-565.00015 -3.4074,-572.85015 5.6426,-574.90015 C 16.1426,-575.75015 32.7426,-570.90015 33.7426,-581.90015 C 36.6426,-596.25015 27.8426,-625.55015 45.4426,-633.45015 C 68.8426,-639.20015 86.3926,-630.45015 108.7426,-633.45015 C 123.5426,-634.35015 136.1926,-633.35015 150.8926,-633.45015 z" id="path4505" style="fill: rgb(0, 0, 0); fill-rule: nonzero; stroke: rgb(0, 0, 0); stroke-width: 3; stroke-linecap: square; stroke-linejoin: miter; stroke-miterlimit: 2;"/>
      <path d="M 204.7926,-610.05015 C 171.3426,-620.65015 137.1926,-617.75015 101.6926,-617.05015 L 94.6426,-614.75015 C 94.2426,-540.60015 93.2426,-463.50015 92.3426,-389.80015 L 96.9926,-387.45015 L 183.6926,-382.75015 C 194.7926,-386.35015 212.3426,-367.80015 214.1426,-387.45015 C 215.2926,-457.65015 214.2926,-521.10015 214.1426,-588.95015 C 214.2926,-598.20015 211.3926,-606.05015 204.7926,-610.05015" id="path4507" style="fill: rgb(255, 255, 255); fill-rule: nonzero; stroke: none;"/>
      <path d="M 345.3926,-614.75015 L 326.6426,-617.05015 C 294.3426,-611.90015 254.3426,-630.45015 230.5426,-603.00015 C 224.0926,-528.90015 227.9926,-452.75015 225.8926,-378.10015 L 230.5426,-375.75015 C 265.0926,-387.35015 305.0926,-379.55015 340.6926,-382.75015 L 347.6926,-387.45015 C 349.0426,-461.55015 347.0926,-528.90015 347.6926,-603.00015 C 344.1426,-608.95015 349.9926,-611.90015 345.3926,-614.75015" id="path4509" style="fill: rgb(255, 255, 255); fill-rule: nonzero; stroke: none;"/>
      <path d="M 394.5926,-610.05015 C 391.9926,-619.70015 378.3426,-617.75015 371.1426,-614.75015 C 372.4926,-606.05015 384.1926,-599.20015 385.1926,-588.95015 L 382.8426,-511.65015 C 383.1926,-493.75015 387.0926,-471.30015 382.8426,-453.05015 C 384.1926,-418.60015 385.1426,-391.25015 385.1926,-361.70015 C 384.1926,-354.15015 379.2926,-347.30015 373.4926,-342.95015 C 335.3426,-338.55015 301.1926,-346.35015 265.6926,-342.95015 L 251.6426,-338.25015 C 251.3926,-335.60015 250.4426,-332.70015 253.9926,-331.20015 C 287.5426,-326.80015 318.7926,-334.65015 352.3926,-331.20015 C 367.5926,-331.70015 381.2426,-328.75015 392.2426,-335.90015 C 394.9426,-352.20015 392.9426,-367.80015 396.9426,-382.75015 C 401.7426,-392.20015 412.4926,-392.20015 420.3426,-392.15015 C 428.0926,-396.15015 436.8926,-390.25015 441.4426,-396.80015 C 443.7426,-401.00015 442.7426,-406.85015 436.7426,-410.90015 L 406.2926,-410.90015 C 397.8426,-412.75015 395.8926,-421.50015 394.5926,-427.30015 C 392.9426,-462.50015 392.9426,-500.60015 396.9426,-535.05015 C 406.6426,-550.40015 435.9426,-534.75015 439.0926,-556.15015 C 430.0426,-567.95015 412.4926,-554.30015 401.5926,-565.50015 C 393.9426,-577.70015 392.9426,-595.30015 394.5926,-610.05015" id="path4511" style="fill: rgb(255, 255, 255); fill-rule: nonzero; stroke: none;"/>
      <path d="M 68.8926,-612.40015 C 66.8926,-618.70015 58.0926,-614.80015 52.4926,-614.75015 C 43.4426,-601.15015 52.2426,-585.55015 45.4426,-567.85015 C 37.5926,-550.40015 7.3426,-570.90015 3.2926,-551.45015 C 10.2926,-540.60015 22.9426,-545.50015 36.0926,-544.45015 C 44.4426,-542.55015 46.3926,-533.80015 47.7926,-528.05015 C 48.3426,-491.80015 48.3426,-454.70015 45.4426,-415.55015 C 38.5926,-407.85015 24.8926,-413.70015 17.3426,-410.90015 C 11.2426,-409.80015 1.4926,-409.80015 0.9426,-401.50015 C 8.2926,-386.35015 32.7426,-401.00015 43.1426,-387.45015 C 48.3426,-370.75015 48.3426,-355.15015 47.7926,-340.60015 L 52.4926,-333.55015 C 90.3426,-329.75015 132.2926,-332.70015 169.6426,-331.20015 C 177.1926,-329.75015 188.9426,-329.75015 190.7426,-338.25015 C 187.9426,-342.45015 182.0926,-344.40015 176.6926,-345.30015 C 142.0426,-345.35015 104.9426,-344.40015 71.2426,-345.30015 C 61.9926,-346.35015 56.1426,-356.10015 57.1926,-364.00015 C 55.1926,-418.60015 59.0926,-472.30015 57.1926,-523.35015 C 60.0426,-554.30015 47.3426,-587.50015 68.8926,-612.40015" id="path4513" style="fill: rgb(255, 255, 255); fill-rule: nonzero; stroke: none;"/>
      <path d="M 82.9426,-598.30015 C 82.4926,-600.15015 80.5426,-603.10015 78.2426,-603.00015 C 70.7926,-596.25015 66.8926,-587.50015 68.8926,-577.25015 C 68.8426,-545.50015 70.7926,-515.25015 68.8926,-483.50015 C 72.7426,-445.90015 64.9426,-406.85015 71.2426,-368.70015 C 75.6926,-368.80015 77.6426,-372.70015 80.5926,-375.75015 C 81.5426,-406.85015 80.5426,-434.20015 80.5926,-464.75015 L 82.9426,-598.30015" id="path4515" style="fill: rgb(255, 255, 255); fill-rule: nonzero; stroke: none;"/>
      <path d="M 373.4926,-584.25015 C 372.4926,-591.40015 367.5926,-596.25015 361.7426,-600.65015 L 359.4426,-549.10015 C 357.7926,-534.75015 364.6426,-521.10015 359.4426,-509.30015 C 359.7426,-470.35015 358.7926,-431.30015 359.4426,-392.15015 C 358.7926,-386.35015 356.8426,-375.65015 366.4426,-368.70015 C 366.5926,-369.75015 370.4926,-368.80015 371.1426,-371.05015 C 374.4426,-442.00015 369.5426,-513.30015 373.4926,-584.25015" id="path4517" style="fill: rgb(255, 255, 255); fill-rule: nonzero; stroke: none;"/>
      <path d="M 298.4926,-551.45015 L 296.1426,-551.45015 C 284.5926,-550.40015 268.9926,-560.15015 260.9926,-549.10015 C 262.1426,-543.55015 267.9926,-541.60015 268.0426,-539.75015 C 269.9426,-516.20015 275.7926,-485.95015 268.0426,-462.45015 C 265.0926,-459.60015 257.2426,-457.65015 260.9926,-450.70015 C 270.9426,-447.85015 285.5926,-445.90015 296.1426,-450.70015 C 300.1926,-455.70015 292.3926,-461.55015 291.4926,-467.10015 C 289.4926,-489.85015 287.5426,-513.30015 291.4926,-539.75015 C 292.3926,-542.55015 300.1926,-544.50015 298.4926,-551.45015" id="path4519" style="fill: rgb(0, 0, 0); fill-rule: nonzero; stroke: none;"/>
      <path d="M 183.6926,-544.45015 C 175.2426,-553.30015 161.5926,-554.30015 148.5426,-556.15015 C 139.1426,-553.30015 124.4926,-558.20015 113.3926,-551.45015 C 126.4426,-526.95015 119.5926,-499.60015 120.4426,-469.45015 C 119.5926,-463.50015 109.8426,-456.65015 115.7426,-450.70015 C 127.3926,-449.85015 138.1426,-445.90015 148.5426,-450.70015 C 150.8426,-462.50015 133.2926,-470.35015 139.1926,-483.50015 C 139.1426,-485.95015 142.0426,-490.85015 146.2426,-490.55015 L 167.2926,-460.10015 C 172.3426,-449.85015 183.0426,-449.85015 195.3926,-450.70015 C 196.7426,-451.80015 200.6426,-452.75015 197.7426,-457.75015 C 185.9926,-466.40015 178.1926,-481.05015 169.6426,-495.25015 C 174.2926,-501.55015 183.0426,-504.50015 186.0426,-511.65015 C 190.8926,-523.05015 187.9426,-533.80015 183.6926,-544.45015" id="path4521" style="fill: rgb(0, 0, 0); fill-rule: nonzero; stroke: none;"/>
      <path d="M 167.2926,-532.70015 C 173.2926,-525.95015 168.4426,-517.20015 164.9426,-509.30015 C 160.5926,-504.50015 153.7926,-502.55015 146.2426,-502.25015 C 142.0426,-502.55015 141.0926,-506.45015 139.1926,-509.30015 L 141.5426,-544.45015 C 150.8426,-550.40015 163.5426,-542.55015 167.2926,-532.70015" id="path4523" style="fill: rgb(255, 255, 255); fill-rule: nonzero; stroke: none;"/>
      <path d="M 167.2926,-532.70015 C 173.2926,-525.95015 168.4426,-517.20015 164.9426,-509.30015 C 160.5926,-504.50015 153.7926,-502.55015 146.2426,-502.25015 C 142.0426,-502.55015 141.0926,-506.45015 139.1926,-509.30015 L 141.5426,-544.45015 C 150.8426,-550.40015 163.5426,-542.55015 167.2926,-532.70015 z" id="path4525" style="fill: none; stroke: rgb(0, 0, 0); stroke-width: 3.75; stroke-linecap: square; stroke-linejoin: miter; stroke-miterlimit: 2;"/>
      <path d="M 202.4426,-364.00015 L 171.9926,-371.05015 C 143.9926,-370.75015 114.7426,-375.65015 87.6426,-368.70015 C 85.4426,-365.85015 80.5426,-362.95015 82.9426,-357.00015 C 113.7426,-355.15015 146.9426,-359.05015 176.6926,-354.65015 C 186.9926,-357.10015 193.7926,-350.25015 202.4426,-354.65015 C 204.5426,-357.10015 204.5426,-361.95015 202.4426,-364.00015" id="path4527" style="fill: rgb(255, 255, 255); fill-rule: nonzero; stroke: none;"/>
      <path d="M 350.0426,-368.70015 L 282.0926,-368.70015 C 267.9926,-364.90015 245.5426,-372.70015 235.2426,-357.00015 C 236.7426,-356.10015 237.7426,-352.20015 242.2926,-352.30015 C 279.6926,-358.05015 319.7426,-352.20015 359.4426,-357.00015 L 359.4426,-359.35015 C 356.8426,-362.95015 355.8426,-367.80015 350.0426,-368.70015" id="path4529" style="fill: rgb(255, 255, 255); fill-rule: nonzero; stroke: none;"/>
      <path d="M 235.2426,-333.55015 C 235.7926,-342.45015 226.9926,-350.25015 218.8426,-354.65015 C 210.3926,-351.20015 208.4426,-342.45015 204.7926,-335.90015 C 202.5926,-328.75015 208.4426,-321.95015 214.1426,-317.15015 C 219.1926,-316.10015 226.9926,-315.10015 230.5426,-319.50015 C 233.8426,-323.90015 237.7426,-327.80015 235.2426,-333.55015" id="path4531" style="fill: rgb(255, 255, 255); fill-rule: nonzero; stroke: none;"/>
      <path d="M -137.1574,-171.70015 C -122.2074,-176.25015 -112.4074,-193.85015 -97.3574,-192.75015 C -91.9074,-186.05015 -98.7574,-177.25015 -95.0074,-169.35015 C -81.2074,-165.50015 -73.3574,-181.15015 -59.8574,-178.70015 C -53.8574,-168.45015 -64.6074,-160.65015 -64.5574,-150.60015 C -63.6074,-145.00015 -66.5574,-137.20015 -59.8574,-134.20015 C -47.0074,-134.30015 -36.2574,-146.95015 -24.7074,-143.55015 C -21.6574,-132.35015 -26.5074,-118.65015 -24.7074,-108.40015 C -8.9574,-103.05015 -26.5074,-93.30015 -20.0074,-87.35015 C -8.9574,-86.45015 2.7926,-100.10015 10.4426,-92.00015 C 5.6926,-80.60015 -2.1074,-68.90015 3.3926,-56.85015 C 14.4926,-48.35015 35.9926,-67.90015 38.5426,-47.50015 C 21.3426,-39.60015 9.5926,-22.00015 8.0926,-3.00015 C 13.4926,1.39985 22.2926,-0.55015001 24.4926,8.74985 C 20.3426,20.94985 2.7926,18.99985 -1.3074,29.79985 C -8.9574,43.39985 -16.7574,55.09985 -29.4074,62.59985 C -38.2074,63.89985 -48.9574,60.94985 -52.8074,69.64985 C -57.7574,84.39985 -48.9574,98.04985 -48.1574,114.14985 C -54.8074,130.29985 -48.0074,146.89985 -59.8574,161.04985 C -57.7574,190.79985 -40.1574,217.14985 -17.6574,235.99985 C -13.8074,240.59985 -13.8074,246.44985 -13.0074,252.39985 C -12.8574,266.94985 -28.4574,276.69985 -38.7574,285.19985 C -42.1574,295.24985 -46.0574,306.99985 -57.5074,313.29985 C -76.3074,323.59985 -92.9074,303.09985 -111.4074,308.64985 C -119.2574,338.19985 -151.4574,347.99985 -177.0074,353.14985 C -203.2074,350.89985 -227.6074,343.09985 -244.9574,325.04985 C -270.6074,323.59985 -294.0074,314.79985 -310.5574,294.59985 C -316.4574,286.49985 -319.4074,275.74985 -319.9074,264.09985 C -315.5074,240.59985 -282.3074,236.69985 -280.1074,212.54985 C -274.5074,191.79985 -256.9074,166.39985 -270.7074,144.64985 C -266.6574,128.34985 -277.4074,103.89985 -263.7074,90.74985 C -267.6574,72.69985 -278.4074,52.19985 -298.8574,48.54985 C -310.6074,38.49985 -321.3574,16.04985 -341.0074,20.44985 C -342.8074,18.99985 -347.7074,18.99985 -345.7074,13.39985 C -345.7574,-6.40015 -312.5574,1.39985 -317.6074,-21.75015 C -315.5074,-36.65015 -347.7074,-49.35015 -326.9574,-61.55015 C -321.3574,-64.00015 -311.5574,-58.15015 -310.5574,-66.25015 C -311.5574,-80.60015 -306.7074,-92.30015 -315.2574,-106.10015 C -315.5074,-108.90015 -313.5574,-112.80015 -310.5574,-113.10015 C -299.8574,-114.75015 -290.1074,-105.00015 -282.4574,-110.75015 C -272.5074,-124.50015 -291.0574,-137.20015 -277.7574,-145.90015 C -265.7074,-146.95015 -257.9074,-137.20015 -247.3074,-131.85015 C -238.3574,-139.15015 -248.1074,-159.65015 -235.5574,-164.65015 C -227.6074,-165.50015 -221.7574,-153.80015 -216.8574,-157.60015 C -213.0074,-167.50015 -219.8074,-178.20015 -209.8074,-183.40015 C -199.3074,-184.05015 -191.5074,-177.25015 -184.0574,-174.00015 C -175.8574,-182.10015 -167.1074,-192.85015 -158.2574,-202.15015 C -147.5574,-195.80015 -147.5574,-178.20015 -137.1574,-171.70015 z M -148.9074,-159.95015 C -152.4574,-164.55015 -153.4074,-176.25015 -162.9574,-176.35015 C -170.0074,-168.45015 -172.9574,-159.65015 -172.3074,-148.25015 C -166.1074,-143.05015 -158.3074,-141.10015 -153.5574,-134.20015 C -147.5574,-139.15015 -145.6074,-151.85015 -148.9074,-159.95015 z M -106.7074,-152.95015 L -111.4074,-169.35015 C -130.9574,-162.60015 -142.7074,-139.15015 -144.2074,-117.80015 L -139.5074,-117.80015 C -126.1074,-128.40015 -110.4574,-134.30015 -106.7074,-152.95015 z M -179.3574,-124.80015 C -184.6574,-138.20015 -180.7574,-157.70015 -198.1074,-162.30015 C -207.1074,-155.75015 -201.2574,-143.05015 -202.7574,-131.85015 C -200.3074,-124.50015 -198.3574,-111.85015 -186.3574,-110.75015 C -180.7574,-112.80015 -180.7574,-119.65015 -179.3574,-124.80015 z M -76.2574,-122.50015 C -77.2574,-132.35015 -73.3574,-144.05015 -83.3074,-150.60015 C -93.8574,-144.05015 -103.6574,-134.30015 -106.7074,-120.15015 C -105.6074,-113.80015 -104.6074,-105.00015 -99.7074,-99.05015 C -89.9574,-105.00015 -81.2074,-110.85015 -76.2574,-122.50015 z M -212.1574,-134.20015 C -215.9074,-141.10015 -221.7574,-146.00015 -228.5574,-145.90015 C -233.5074,-141.10015 -232.5074,-133.30015 -230.9074,-127.15015 C -228.6074,-123.55015 -224.7074,-118.65015 -219.1574,-120.15015 C -215.9074,-125.50015 -211.0074,-128.40015 -212.1574,-134.20015 z M -247.3074,-108.40015 C -250.0574,-116.70015 -254.9574,-127.45015 -266.0574,-127.15015 C -267.6574,-111.85015 -267.6574,-94.25015 -261.3574,-80.30015 C -258.8574,-72.80015 -249.1074,-73.75015 -242.6074,-73.30015 C -243.2574,-84.50015 -242.2574,-98.15015 -247.3074,-108.40015 z M -155.9074,-110.75015 C -157.3574,-115.75015 -158.3074,-123.55015 -165.3074,-122.50015 C -176.8574,-114.75015 -175.8574,-95.25015 -174.6574,-82.65015 C -171.0074,-79.60015 -169.0574,-84.50015 -165.3074,-87.35015 C -162.2074,-88.40015 -159.3074,-86.45015 -155.9074,-85.00015 C -151.4574,-92.30015 -154.4074,-102.05015 -155.9074,-110.75015 z M -36.4074,-115.45015 L -41.1074,-122.50015 C -53.8574,-123.55015 -60.7074,-112.80015 -64.5574,-101.40015 C -65.5574,-96.20015 -68.5074,-88.40015 -62.2074,-85.00015 C -52.8574,-93.30015 -32.3574,-95.25015 -36.4074,-115.45015 z M -214.5074,-96.70015 C -213.9574,-103.05015 -223.7074,-111.85015 -230.9074,-110.75015 C -229.5574,-95.25015 -237.4074,-75.70015 -223.8574,-68.60015 C -214.9074,-74.75015 -212.0074,-85.45015 -214.5074,-96.70015 z M -113.7574,-87.35015 C -114.3574,-94.25015 -113.4074,-104.00015 -118.4074,-110.75015 C -128.0574,-107.90015 -136.8574,-103.05015 -139.5074,-94.35015 C -140.7574,-83.50015 -144.6574,-72.80015 -146.5574,-61.55015 C -144.6574,-59.10015 -141.7074,-57.15015 -137.1574,-59.20015 C -127.0574,-63.00015 -115.3574,-73.75015 -113.7574,-87.35015 z M -177.0074,-66.25015 C -180.7574,-76.70015 -184.6574,-87.45015 -191.0574,-96.70015 C -192.4574,-100.10015 -198.3574,-105.00015 -200.4574,-99.05015 C -204.2074,-92.30015 -204.2074,-85.45015 -202.7574,-77.95015 C -201.2574,-66.90015 -190.5074,-63.00015 -181.7074,-59.20015 C -178.8074,-61.05015 -177.8574,-64.00015 -177.0074,-66.25015 z M -76.2574,-96.70015 L -80.9574,-99.05015 C -89.9574,-94.25015 -98.7574,-87.45015 -102.0074,-77.95015 C -103.6574,-69.85015 -107.5574,-62.05015 -102.0074,-54.55015 C -95.8574,-54.25015 -89.0074,-59.10015 -83.3074,-61.55015 C -76.3074,-70.85015 -76.3074,-84.50015 -76.2574,-96.70015 z M -280.1074,-89.65015 C -283.2574,-94.25015 -293.0074,-100.10015 -298.8574,-94.35015 C -296.9574,-81.55015 -301.8074,-67.90015 -294.1574,-56.85015 C -291.0574,-55.20015 -289.1074,-51.30015 -284.8074,-52.20015 C -284.2574,-59.10015 -282.3074,-65.95015 -284.8074,-70.95015 C -288.1574,-77.65015 -284.2574,-84.50015 -280.1074,-89.65015 z M -36.4074,-70.95015 C -33.3574,-85.45015 -47.0074,-79.60015 -52.8074,-77.95015 C -68.5074,-74.75015 -61.6574,-59.10015 -64.5574,-49.85015 C -61.6574,-45.45015 -57.7574,-50.35015 -52.8074,-49.85015 C -44.1074,-53.25015 -39.2074,-62.05015 -36.4074,-70.95015 z M -10.6574,-70.95015 C -10.9074,-72.80015 -13.8074,-71.80015 -17.6574,-73.30015 C -22.6074,-70.85015 -28.4574,-65.95015 -29.4074,-59.20015 C -24.5574,-50.35015 -35.3074,-44.45015 -34.1074,-35.80015 C -34.3074,-30.80015 -29.4574,-32.75015 -27.0574,-33.45015 C -10.9074,-39.60015 -7.0074,-54.25015 -10.6574,-70.95015 z M -251.9574,-54.55015 C -254.0074,-62.05015 -259.8574,-71.80015 -268.4074,-68.60015 C -271.5574,-54.25015 -273.5074,-41.55015 -266.0574,-28.75015 C -262.7574,-26.90015 -257.9074,-23.00015 -251.9574,-26.40015 L -251.9574,-54.55015 z M -151.2574,-31.10015 C -150.5074,-45.45015 -151.4574,-61.05015 -165.3074,-66.25015 C -172.9574,-58.15015 -177.8574,-43.50015 -174.6574,-31.10015 C -165.1574,-34.70015 -162.2074,-22.00015 -155.9074,-19.40015 C -151.4574,-23.00015 -151.4574,-27.85015 -151.2574,-31.10015 z M -188.7074,-42.80015 C -193.4574,-48.35015 -199.3074,-56.20015 -207.4574,-56.85015 C -208.1074,-41.55015 -213.9574,-21.05015 -200.4574,-7.65015 C -196.4074,-6.40015 -189.5574,-0.55015001 -184.0574,-5.35015 C -177.8574,-18.10015 -187.6074,-29.85015 -188.7074,-42.80015 z M -113.7574,-47.50015 C -116.3574,-69.85015 -130.0074,-41.55015 -137.1574,-38.15015 C -140.7574,-26.90015 -144.6574,-13.25015 -146.5574,-0.65015001 C -145.6074,3.34985 -144.6574,9.24985 -139.5074,8.74985 C -119.2574,-0.55015001 -113.4074,-23.95015 -113.7574,-47.50015 z M -219.1574,-40.45015 C -223.7074,-46.40015 -228.6074,-57.15015 -240.2574,-54.55015 C -236.4074,-40.55015 -248.1074,-20.05015 -230.9074,-12.35015 C -213.0074,-12.25015 -219.8074,-30.80015 -219.1574,-40.45015 z M -85.6074,-24.05015 L -83.3074,-47.50015 C -87.0574,-48.35015 -95.8574,-45.45015 -99.7074,-40.45015 C -105.6074,-32.75015 -104.6074,-23.95015 -104.3574,-14.70015 C -93.8574,-6.40015 -89.0074,-18.10015 -85.6074,-24.05015 z M -277.7574,-26.40015 C -287.1574,-33.75015 -295.9574,-42.50015 -308.2074,-40.45015 C -311.5574,-33.75015 -306.7074,-24.95015 -305.8574,-17.05015 C -298.9074,-3.45015 -282.3074,-7.35015 -270.7074,-0.65015001 L -268.4074,-3.00015 C -271.5574,-10.30015 -273.5074,-19.10015 -277.7574,-26.40015 z M -45.8074,-31.10015 C -47.0074,-34.70015 -49.9574,-40.55015 -55.1574,-38.15015 C -69.4574,-30.80015 -82.1574,-17.15015 -85.6074,-0.65015001 L -83.3074,-0.65015001 C -69.4574,-8.35015 -44.1074,-7.35015 -45.8074,-31.10015 z M -5.9574,-21.75015 C -4.0574,-26.90015 -8.9574,-24.95015 -13.0074,-26.40015 C -22.6074,-20.05015 -38.2074,-15.20015 -41.1074,-0.65015001 L -17.6574,-0.65015001 C -4.0574,-1.50015 -8.9574,-14.20015 -5.9574,-21.75015 z M -228.5574,6.39985 C -238.3574,2.39985 -244.2074,-9.30015 -256.6574,-10.00015 C -258.8574,-7.35015 -257.9074,-1.50015 -256.6574,-0.65015001 C -251.0574,14.09985 -254.0074,30.69985 -242.6074,41.54985 C -237.4074,41.44985 -230.5574,51.19985 -223.8574,43.84985 C -224.7074,31.69985 -224.7074,17.99985 -228.5574,6.39985 z M -153.5574,46.19985 C -146.6074,28.74985 -152.4574,6.29985 -165.3074,-5.35015 C -170.0074,-4.45015 -171.9574,-1.50015 -172.3074,1.69985 C -180.7574,18.99985 -182.7074,39.49985 -169.9574,53.24985 C -163.2074,54.14985 -155.3574,53.14985 -153.5574,46.19985 z M -188.7074,15.74985 C -195.4074,7.24985 -205.1574,2.39985 -214.5074,4.04985 C -211.0074,19.94985 -218.8574,39.49985 -205.1074,50.89985 C -199.3074,54.14985 -189.5574,58.04985 -186.3574,53.24985 L -188.7074,15.74985 z M -106.7074,6.39985 L -111.4074,4.04985 C -119.2574,6.29985 -126.1074,13.14985 -132.5074,20.44985 C -141.7074,25.79985 -139.7574,38.49985 -141.8574,48.54985 C -143.6574,56.09985 -136.8574,58.99985 -130.1574,57.94985 C -111.4574,49.24985 -109.5074,26.79985 -106.7074,6.39985 z M -263.7074,22.79985 C -274.5074,8.24985 -295.0074,3.34985 -310.5574,11.04985 L -296.5074,29.79985 C -287.1574,33.64985 -276.4574,43.39985 -266.0574,34.49985 C -262.7574,31.69985 -264.7074,26.79985 -263.7074,22.79985 z M -59.8574,8.74985 C -71.4074,5.29985 -81.2074,11.19985 -87.9574,15.74985 C -94.8574,23.84985 -100.7074,32.64985 -99.7074,43.84985 C -97.8074,48.24985 -92.9074,53.14985 -87.9574,53.24985 C -62.6574,52.19985 -68.5074,22.89985 -59.8574,8.74985 z M -10.6574,20.44985 L -10.6574,13.39985 C -21.6574,11.19985 -34.3074,10.19985 -45.8074,15.74985 C -50.9074,20.94985 -52.8574,29.74985 -55.1574,36.84985 C -52.8574,45.34985 -45.0574,49.24985 -36.4074,46.19985 C -26.5074,40.44985 -17.7074,29.74985 -10.6574,20.44985 z M -237.9074,60.29985 C -244.2074,57.04985 -252.0074,50.24985 -259.0074,48.54985 C -264.7074,56.09985 -256.9074,62.89985 -254.3074,69.64985 C -248.1074,82.44985 -251.0574,103.89985 -233.2574,107.14985 C -227.6074,93.19985 -232.5074,75.59985 -237.9074,60.29985 z M -99.7074,64.94985 C -100.7074,59.99985 -104.6074,56.09985 -109.0574,55.59985 C -115.3574,57.04985 -119.2574,62.89985 -123.1074,67.29985 C -121.2074,81.44985 -113.4074,92.19985 -113.7574,104.79985 C -110.4574,109.79985 -106.5574,105.84985 -102.0074,104.79985 C -100.7074,100.99985 -98.7574,96.09985 -99.7074,90.74985 C -102.6574,82.44985 -95.8574,73.64985 -99.7074,64.94985 z M -198.1074,67.29985 C -206.1574,64.84985 -209.0574,58.99985 -216.8574,57.94985 C -219.8074,57.04985 -220.8074,59.99985 -223.8574,62.59985 L -219.1574,114.14985 C -220.8074,118.54985 -215.9074,124.39985 -212.1574,121.19985 C -213.0074,102.94985 -204.2074,87.34985 -198.1074,69.64985 L -198.1074,67.29985 z M -66.9074,64.94985 L -83.3074,64.94985 C -88.0074,69.74985 -89.9574,78.54985 -87.9574,88.39985 C -88.0074,91.24985 -88.0074,96.09985 -83.3074,95.39985 C -69.4574,91.24985 -69.4574,73.64985 -66.9074,64.94985 z M -137.1574,74.34985 C -156.3574,57.04985 -183.7074,72.69985 -195.7574,88.39985 C -200.3074,100.99985 -205.1574,114.64985 -195.7574,128.19985 C -194.4074,133.19985 -188.5574,133.19985 -184.0574,130.54985 C -183.7074,120.49985 -183.7074,104.89985 -169.9574,97.74985 C -157.3574,92.19985 -149.5074,106.84985 -139.5074,111.79985 C -135.8574,108.79985 -130.9574,107.84985 -127.8074,107.14985 C -123.1574,96.09985 -130.9574,83.39985 -137.1574,74.34985 z M -69.2074,125.89985 C -68.5074,117.59985 -55.8074,109.79985 -66.9074,102.44985 C -101.7074,132.24985 -153.4074,124.39985 -188.7074,151.64985 C -198.3574,160.54985 -204.2074,171.29985 -200.4574,184.44985 C -195.4074,187.89985 -191.5074,181.99985 -188.7074,179.74985 C -169.0574,158.59985 -136.8574,158.59985 -109.0574,156.34985 C -95.8574,149.79985 -77.2574,154.69985 -64.5574,144.64985 C -58.7074,138.09985 -65.5574,130.29985 -69.2074,125.89985 z M -155.9074,116.49985 C -155.3574,109.79985 -160.2574,109.79985 -165.3074,109.49985 C -168.0574,110.74985 -171.0074,111.74985 -169.9574,114.14985 C -170.0074,118.54985 -171.0074,124.39985 -165.3074,123.54985 C -160.2574,122.44985 -156.3574,119.54985 -155.9074,116.49985 z M -205.1074,144.64985 C -220.8074,135.14985 -239.3574,132.24985 -254.3074,116.49985 C -255.9574,126.39985 -245.2074,130.29985 -242.6074,137.59985 C -242.2574,143.94985 -250.0574,139.04985 -251.9574,142.29985 C -245.2074,155.64985 -228.6074,160.54985 -214.5074,161.04985 C -210.0574,155.64985 -204.2074,149.79985 -205.1074,144.64985 z M -76.2574,168.04985 C -79.2074,165.39985 -84.1074,166.39985 -85.6074,170.39985 C -80.2074,205.44985 -75.3074,239.59985 -50.4574,264.09985 C -45.0574,267.94985 -40.1574,265.99985 -36.4074,261.74985 C -33.3574,257.19985 -34.3074,251.34985 -36.4074,245.39985 C -59.7074,224.99985 -69.4574,196.64985 -76.2574,168.04985 z M -95.0074,198.49985 C -99.7574,188.84985 -89.0074,170.29985 -104.3574,168.04985 C -107.5574,170.29985 -113.4074,170.29985 -111.4074,175.09985 C -106.5574,217.14985 -104.6074,258.14985 -87.9574,294.59985 C -81.2074,297.19985 -69.4574,302.09985 -62.2074,294.59985 C -56.7574,292.34985 -52.8574,285.49985 -55.1574,278.19985 C -75.3074,255.24985 -89.9574,228.89985 -95.0074,198.49985 z M -237.9074,182.09985 C -235.4574,174.19985 -244.2074,166.39985 -251.9574,172.74985 C -259.8574,196.64985 -260.8074,223.99985 -277.7574,243.04985 C -289.1074,253.29985 -310.6074,258.14985 -301.2074,278.19985 C -292.0574,294.29985 -272.5074,305.04985 -251.9574,303.94985 C -238.3574,286.49985 -227.6074,264.04985 -221.5074,240.69985 C -222.7574,220.09985 -212.0074,199.59985 -219.1574,177.44985 C -222.7574,175.19985 -226.6574,178.09985 -228.5574,182.09985 C -225.6574,193.74985 -232.5074,204.44985 -235.5574,217.24985 C -238.3574,219.09985 -243.2574,217.14985 -244.9574,214.89985 L -237.9074,182.09985 z M -123.1074,184.44985 C -121.2074,176.14985 -128.0574,166.39985 -137.1574,172.74985 C -142.7074,176.14985 -138.8074,186.89985 -139.5074,193.84985 C -136.8574,221.04985 -136.8574,254.24985 -127.8074,282.84985 C -125.1074,286.49985 -122.2074,292.34985 -116.1074,292.24985 C -113.4074,290.39985 -109.5074,290.39985 -109.0574,285.19985 C -112.4074,253.29985 -119.2574,218.14985 -123.1074,184.44985 z M -151.2574,184.44985 C -147.5574,172.24985 -163.2074,178.09985 -169.9574,182.09985 C -182.7074,189.84985 -181.7574,203.49985 -179.3574,219.59985 C -179.8074,227.89985 -169.0574,227.89985 -162.9574,226.64985 C -136.8574,225.94985 -156.3574,198.59985 -151.2574,184.44985 z M -179.3574,240.69985 C -198.3574,238.64985 -189.5574,215.19985 -193.4074,205.54985 C -198.3574,201.54985 -203.2074,201.54985 -207.4574,205.54985 L -209.8074,228.94985 C -211.0074,259.14985 -227.6074,283.54985 -233.2574,310.99985 C -220.8074,328.44985 -199.3074,330.39985 -179.3574,332.04985 C -160.2574,330.39985 -135.8574,327.49985 -130.1574,308.64985 C -137.8074,285.49985 -146.6074,264.04985 -148.9074,240.69985 L -179.3574,240.69985" id="path4533" style="fill: rgb(0, 0, 0); fill-rule: nonzero; stroke: none;"/>
      <path d="M 633.6926,-164.65015 C 638.3426,-167.50015 639.2926,-174.30015 645.3926,-176.35015 C 651.9926,-175.30015 655.8926,-170.40015 657.0926,-164.65015 C 659.7926,-158.70015 652.9426,-153.80015 659.4426,-148.25015 C 668.5926,-154.80015 677.3426,-163.55015 687.5926,-169.35015 C 693.9426,-173.35015 695.8926,-165.50015 696.9426,-162.30015 C 696.8926,-150.90015 695.8926,-136.25015 696.9426,-127.15015 C 712.4926,-127.45015 719.3426,-145.00015 734.4426,-145.90015 L 739.0926,-138.90015 C 737.8926,-123.55015 731.0426,-103.05015 741.4426,-89.65015 C 750.5926,-90.35015 761.3426,-98.15015 771.9426,-92.00015 C 777.9426,-81.55015 765.2426,-73.75015 767.2426,-61.55015 C 769.1426,-53.25015 749.5926,-42.50015 764.8926,-40.45015 C 771.0926,-40.55015 777.9426,-41.55015 781.2926,-35.80015 C 779.8926,-26.90015 772.0426,-22.00015 769.5926,-12.35015 C 766.1926,-3.45015 765.2426,8.24985 755.4926,13.39985 C 759.3926,18.99985 771.0926,17.04985 771.9426,27.49985 C 757.4426,37.54985 752.5426,54.14985 743.7926,67.29985 C 734.9426,87.34985 696.8926,72.69985 706.2926,100.09985 C 710.5426,112.69985 707.6426,126.39985 715.6926,137.59985 C 719.3426,148.84985 713.4926,159.54985 706.2926,168.04985 C 705.6926,201.54985 724.2426,226.94985 743.7926,250.04985 C 748.6426,274.74985 721.2926,279.64985 715.6926,299.24985 C 705.6926,305.04985 699.7926,317.69985 685.2426,313.29985 C 677.3426,312.84985 670.5426,298.19985 661.7926,308.64985 C 654.8926,316.74985 660.7426,328.44985 652.4426,334.39985 C 629.5426,352.84985 599.2926,348.94985 572.7426,350.79985 C 548.4926,347.99985 530.9426,332.34985 514.1926,315.64985 C 490.8926,305.04985 463.5426,291.34985 455.5926,264.09985 C 451.8426,236.69985 484.0926,225.94985 493.0926,205.54985 C 500.6426,188.84985 510.4426,172.24985 509.4926,153.99985 C 501.6426,137.09985 500.6426,113.69985 509.4926,95.39985 C 508.4926,87.34985 512.3926,73.64985 497.7926,69.64985 C 474.2926,66.84985 462.5926,39.49985 439.1926,32.14985 C 436.2426,28.74985 437.1926,24.84985 436.8926,22.79985 C 441.0926,15.09985 449.8926,16.04985 455.5926,11.04985 C 453.7926,-1.50015 451.8426,-14.20015 439.1926,-19.40015 C 436.2426,-22.00015 429.3926,-23.00015 427.4926,-28.75015 C 431.3426,-40.55015 444.9926,-32.75015 450.9426,-38.15015 C 446.9426,-54.25015 444.9926,-70.85015 434.4926,-85.00015 C 439.1426,-101.10015 457.6926,-84.50015 469.6426,-87.35015 C 475.2926,-89.40015 472.3426,-94.25015 471.9926,-99.05015 C 468.4426,-107.90015 455.7426,-113.80015 457.9426,-122.50015 C 467.4426,-137.20015 495.7926,-113.80015 490.7426,-136.55015 C 485.0426,-142.10015 480.1426,-147.95015 479.0426,-155.30015 C 480.1426,-157.70015 484.0926,-160.65015 486.0926,-162.30015 C 498.6926,-163.55015 508.4926,-156.75015 518.8926,-152.95015 C 522.1426,-160.65015 502.5926,-171.40015 516.5426,-176.35015 C 527.9926,-176.25015 536.7926,-170.40015 544.6426,-164.65015 C 550.4426,-165.50015 545.5926,-176.25015 551.6926,-178.70015 C 566.0926,-181.15015 573.8926,-162.60015 586.7926,-164.65015 C 592.4426,-169.45015 594.3926,-177.25015 600.8926,-178.70015 C 615.8426,-180.15015 617.7926,-154.80015 633.6926,-164.65015 z M 614.9426,-129.50015 C 621.7426,-144.05015 608.0426,-155.75015 603.1926,-167.00015 L 596.1926,-162.30015 C 596.3426,-153.80015 588.5426,-143.05015 591.4926,-134.20015 C 600.2426,-136.25015 607.0426,-129.40015 614.9426,-129.50015 z M 586.7926,-120.15015 C 579.7426,-133.30015 586.5926,-155.75015 565.7426,-157.60015 L 563.3926,-131.85015 L 570.3926,-120.15015 C 575.8426,-118.65015 580.6926,-110.85015 586.7926,-115.45015 L 586.7926,-120.15015 z M 645.3926,-145.90015 C 644.1926,-165.50015 632.4426,-144.05015 626.6426,-138.90015 C 625.6426,-127.45015 617.7926,-112.80015 624.2926,-101.40015 C 628.5426,-102.05015 633.4426,-103.05015 636.0426,-106.10015 C 649.0426,-116.70015 644.1926,-130.40015 645.3926,-145.90015 z M 553.9926,-129.50015 C 553.3926,-137.20015 551.4426,-145.00015 544.6426,-150.60015 C 542.6426,-155.75015 538.7426,-150.90015 535.2426,-152.95015 C 530.9426,-141.10015 528.9926,-125.50015 537.5926,-117.80015 C 548.4926,-107.90015 551.4426,-122.55015 553.9926,-129.50015 z M 521.1926,-127.15015 L 518.8926,-134.20015 C 514.3426,-138.20015 507.4926,-145.00015 500.1426,-141.20015 C 497.7426,-130.40015 504.5926,-118.65015 511.8426,-110.75015 C 511.3926,-119.65015 519.1926,-122.55015 521.1926,-127.15015 z M 685.2426,-124.80015 C 684.1926,-131.35015 682.2426,-138.20015 678.1926,-143.55015 C 672.4926,-141.10015 666.6426,-137.20015 661.7926,-131.85015 C 657.8426,-128.40015 658.7926,-121.60015 661.7926,-117.80015 C 664.6926,-109.90015 653.9426,-97.20015 666.4926,-96.70015 C 671.4926,-106.00015 689.0926,-111.85015 685.2426,-124.80015 z M 722.6926,-94.35015 C 722.2926,-102.05015 725.1926,-116.70015 715.6926,-117.80015 C 709.5926,-114.75015 697.8426,-113.80015 699.2926,-101.40015 C 702.7426,-96.20015 697.8426,-82.55015 706.2926,-80.30015 C 713.4926,-84.50015 721.2926,-87.45015 722.6926,-94.35015 z M 612.5926,-85.00015 C 612.9426,-94.25015 611.9426,-105.00015 605.5426,-113.10015 C 604.1426,-114.75015 602.1926,-115.75015 600.8926,-113.10015 C 597.3426,-104.00015 589.4926,-91.35015 593.8426,-82.65015 C 599.2926,-88.40015 608.0426,-79.60015 612.5926,-85.00015 z M 553.9926,-92.00015 L 544.6426,-99.05015 C 539.6926,-103.05015 532.8926,-110.85015 528.2426,-106.10015 C 531.8926,-90.35015 525.0926,-73.75015 532.9426,-61.55015 C 543.6426,-56.20015 548.4926,-64.95015 556.3426,-68.60015 L 553.9926,-92.00015 z M 518.8926,-80.30015 C 514.3426,-95.25015 497.7426,-101.10015 483.7426,-106.10015 C 481.1426,-95.25015 486.0426,-82.55015 490.7426,-70.95015 L 509.4926,-68.60015 C 512.3926,-70.85015 521.1426,-72.80015 518.8926,-80.30015 z M 582.1426,-94.35015 C 578.7426,-100.10015 569.9926,-109.90015 563.3926,-103.75015 C 566.0926,-85.45015 559.2426,-59.10015 579.7926,-52.20015 C 600.2426,-62.05015 577.7926,-78.65015 582.1426,-94.35015 z M 650.0926,-63.90015 C 650.9926,-74.75015 652.9426,-93.30015 647.7426,-101.40015 C 637.3426,-98.15015 630.4926,-89.40015 626.6426,-80.30015 C 621.7426,-69.85015 619.7926,-62.05015 626.6426,-52.20015 C 634.3926,-50.35015 642.2426,-58.15015 650.0926,-63.90015 z M 689.8926,-99.05015 C 681.2426,-100.10015 676.3926,-90.35015 671.1426,-87.35015 C 660.7426,-71.80015 668.5926,-59.10015 666.4926,-42.80015 C 672.4926,-40.55015 677.3426,-44.45015 680.5426,-47.50015 C 692.9926,-60.10015 693.9426,-81.55015 689.8926,-99.05015 z M 753.1426,-68.60015 C 754.4926,-73.75015 748.6426,-75.70015 743.7926,-75.60015 C 739.8426,-75.70015 735.9426,-70.85015 732.0926,-66.25015 C 732.9926,-56.20015 731.0426,-46.40015 736.7926,-38.15015 C 739.8426,-35.70015 741.7926,-38.60015 743.7926,-40.45015 C 755.4426,-43.50015 752.5426,-60.10015 753.1426,-68.60015 z M 486.0926,-40.45015 L 481.3926,-52.20015 C 478.1926,-58.15015 479.1926,-66.90015 474.3426,-70.95015 C 469.4426,-74.75015 463.5426,-73.75015 457.9426,-73.30015 C 458.6926,-55.20015 464.5426,-35.70015 481.3926,-28.75015 C 486.9926,-32.75015 483.0926,-36.65015 486.0926,-40.45015 z M 722.6926,-59.20015 C 722.2926,-65.95015 724.2426,-72.80015 718.0426,-73.30015 C 710.5426,-69.85015 703.7426,-64.95015 701.6426,-59.20015 C 705.6926,-50.35015 701.7926,-40.55015 703.9926,-33.45015 C 708.5926,-32.75015 713.4926,-33.75015 718.0426,-38.15015 C 719.3426,-44.45015 724.2426,-51.30015 722.6926,-59.20015 z M 619.5926,-33.45015 C 615.8426,-43.50015 615.8426,-60.10015 603.1926,-63.90015 C 595.3426,-55.20015 591.4426,-41.55015 591.4926,-28.75015 C 596.3426,-22.00015 606.0926,-23.95015 612.5926,-17.05015 C 619.7926,-17.15015 617.7926,-27.85015 619.5926,-33.45015 z M 514.1926,-47.50015 C 508.4926,-50.35015 498.6926,-59.10015 495.4426,-52.20015 C 499.6926,-39.60015 492.8426,-23.95015 502.4926,-12.35015 C 508.4926,-12.25015 513.3426,-18.10015 518.8926,-19.40015 C 520.1926,-27.85015 518.2426,-38.60015 514.1926,-47.50015 z M 654.7426,-21.75015 C 654.8926,-31.80015 662.7426,-42.50015 654.7426,-52.20015 C 643.1926,-49.35015 632.4426,-36.65015 626.6426,-24.05015 C 624.6426,-14.20015 615.8426,0.44984999 626.6426,8.74985 C 631.4926,13.14985 637.3426,8.24985 643.0426,6.39985 C 650.9926,-0.55015001 652.9426,-11.30015 654.7426,-21.75015 z M 551.6926,-33.45015 C 549.4926,-42.50015 537.7426,-51.30015 528.2426,-49.85015 C 532.8926,-36.65015 528.9926,-20.05015 537.5926,-10.00015 C 542.6426,-7.35015 545.5926,-16.15015 551.6926,-17.05015 C 554.3426,-21.05015 552.3926,-26.90015 551.6926,-33.45015 z M 589.1426,-10.00015 C 576.7926,-21.05015 586.5926,-44.45015 565.7426,-47.50015 C 552.3926,-41.55015 567.0426,-25.90015 561.0426,-14.70015 C 565.0926,-4.45015 573.8926,1.39985 582.1426,4.04985 C 589.4926,3.34985 589.4926,-4.45015 589.1426,-10.00015 z M 689.8926,-33.45015 C 676.3926,-34.70015 662.7426,-22.00015 664.1426,-7.65015 C 672.4926,-6.40015 674.4426,0.44984999 678.1926,6.39985 C 691.0426,-1.50015 687.1426,-20.05015 689.8926,-33.45015 z M 722.6926,-24.05015 L 720.3926,-26.40015 C 715.4426,-23.00015 707.6426,-23.95015 701.6426,-19.40015 C 696.8926,-12.25015 696.8926,-2.50015 696.9426,6.39985 L 699.2926,6.39985 C 710.5426,-1.50015 722.2926,-10.30015 722.6926,-24.05015 z M 755.4926,-19.40015 C 754.4926,-24.95015 749.5926,-23.00015 743.7926,-24.05015 C 728.1426,-20.05015 726.1926,1.39985 720.3926,15.74985 C 720.2926,17.04985 723.2426,17.99985 725.0426,18.09985 C 742.7926,14.09985 750.5926,-5.40015 755.4926,-19.40015 z M 490.7426,-7.65015 C 482.0926,-11.30015 473.3426,-19.10015 464.9926,-17.05015 C 461.5926,-7.35015 466.4926,2.39985 474.3426,11.04985 C 484.0926,12.14985 494.7926,17.04985 504.7926,18.09985 C 508.4926,5.29985 492.8426,1.39985 490.7426,-7.65015 z M 617.2926,18.09985 C 616.8426,8.24985 611.9426,-5.40015 600.8926,-0.65015001 C 594.3926,16.04985 584.5926,38.49985 598.5426,53.24985 C 605.0926,56.09985 611.9426,56.09985 614.9426,50.89985 C 618.7926,39.49985 616.8426,28.74985 617.2926,18.09985 z M 544.6426,18.09985 C 538.7426,10.19985 529.9426,6.29985 521.1926,4.04985 C 516.2926,13.14985 517.2426,25.79985 518.8926,34.49985 C 519.1926,43.39985 524.0926,51.19985 532.9426,53.24985 C 537.7426,53.14985 543.6426,53.14985 544.6426,48.54985 L 544.6426,18.09985 z M 579.7926,20.44985 L 577.4426,15.74985 C 569.9926,12.14985 561.1926,0.44984999 553.9926,11.04985 C 551.4426,26.79985 555.3426,42.39985 565.7426,53.24985 C 571.9426,56.09985 581.6926,58.99985 584.4926,53.24985 L 579.7926,20.44985 z M 664.1426,15.74985 L 661.7926,11.04985 C 653.9426,14.09985 643.1926,15.09985 636.0426,22.79985 C 623.6926,28.74985 631.4926,47.29985 626.6426,57.94985 L 626.6426,62.59985 C 633.4426,67.79985 642.2426,63.89985 647.7426,60.29985 C 659.7926,48.24985 663.6926,31.69985 664.1426,15.74985 z M 706.2926,22.79985 L 706.2926,15.74985 C 698.8426,16.04985 692.9926,21.89985 685.2426,25.14985 C 677.3426,33.64985 666.6426,42.39985 668.7926,53.24985 C 669.5426,59.99985 675.3926,59.99985 680.5426,60.29985 C 697.8426,55.09985 698.8426,35.59985 706.2926,22.79985 z M 509.4926,41.54985 C 507.4926,32.64985 497.7426,33.64985 495.4426,27.49985 C 485.0426,25.79985 475.2926,23.84985 467.3426,29.79985 C 468.4426,35.59985 473.3426,37.54985 476.6926,43.84985 C 483.0926,53.14985 495.7926,51.19985 504.7926,53.24985 C 512.3926,53.14985 509.4426,45.34985 509.4926,41.54985 z M 746.1426,29.79985 C 741.7926,26.79985 736.9426,25.79985 732.0926,27.49985 C 714.4426,28.74985 704.6926,45.34985 701.6426,57.94985 C 699.7926,64.84985 706.6426,66.84985 710.9926,67.29985 C 730.0926,64.84985 739.8426,45.34985 746.1426,29.79985 z M 532.9426,67.29985 C 529.9426,65.84985 526.0426,61.94985 521.1926,62.59985 C 513.3426,73.64985 524.0926,87.34985 528.2426,100.09985 C 532.8926,99.99985 534.8426,107.84985 539.9426,104.79985 C 537.7426,92.19985 540.6926,78.54985 532.9426,67.29985 z M 572.7426,71.99985 C 567.0426,67.79985 560.2426,62.89985 551.6926,64.94985 C 545.5926,66.84985 548.4926,72.69985 546.9926,76.69985 C 551.4426,92.19985 551.4426,104.89985 556.3426,118.84985 C 557.2926,120.49985 560.2426,122.44985 561.0426,118.84985 C 558.2426,102.94985 565.0926,87.34985 572.7426,71.99985 z M 640.6926,93.09985 C 633.4426,76.59985 614.8926,62.89985 596.1926,69.64985 C 583.6426,75.59985 576.7926,89.29985 575.0926,100.09985 C 574.8426,110.74985 575.8426,124.39985 584.4926,128.19985 C 581.6926,119.54985 588.5426,112.69985 591.4926,104.79985 C 596.3426,99.99985 603.1426,99.99985 607.8926,102.44985 C 616.8426,103.89985 622.6926,112.69985 624.2926,121.19985 C 634.3926,122.44985 627.5926,104.89985 640.6926,111.79985 C 643.1926,105.84985 642.2426,98.04985 640.6926,93.09985 z M 666.4926,76.69985 C 663.6926,65.84985 651.9926,69.74985 647.7426,74.34985 C 645.1426,79.49985 647.0926,85.34985 650.0926,88.39985 C 653.9426,98.04985 654.8926,108.79985 659.4426,116.49985 C 659.7926,115.64985 660.7426,113.69985 661.7926,114.14985 C 659.7926,99.99985 665.6426,88.29985 666.4926,76.69985 z M 696.9426,76.69985 C 697.8426,64.84985 681.2426,69.74985 675.8426,76.69985 C 673.4426,85.34985 672.4926,97.09985 673.4926,107.14985 C 690.0426,105.84985 691.9926,89.29985 696.9426,76.69985 z M 610.2426,118.84985 C 609.0426,116.59985 608.0426,110.74985 603.1926,111.79985 C 597.3426,114.64985 597.3426,118.54985 596.1926,123.54985 C 597.3426,127.34985 601.1926,129.29985 603.1926,128.19985 C 609.0426,127.34985 610.9926,123.44985 610.2426,118.84985 z M 553.9926,137.59985 C 540.6926,132.24985 530.9426,120.49985 518.8926,114.14985 C 516.2926,124.39985 530.9426,126.39985 532.9426,135.24985 C 533.8426,140.99985 526.0426,139.04985 521.1926,139.94985 C 527.9926,154.69985 543.6426,160.54985 556.3426,163.34985 C 567.0426,164.44985 568.0426,152.74985 572.7426,146.94985 L 553.9926,137.59985 z M 694.5926,116.49985 L 692.2426,116.49985 C 683.2426,119.54985 673.4426,125.39985 664.1426,128.19985 C 635.3926,142.94985 594.3926,134.19985 579.7926,165.69985 C 578.7426,172.24985 568.9926,179.09985 577.4426,182.09985 C 609.9926,153.69985 659.7926,166.39985 696.9426,151.64985 C 699.7926,146.89985 699.7926,140.99985 696.9426,137.59985 C 693.9426,132.24985 691.9926,139.04985 687.5926,137.59985 C 667.5926,134.19985 696.8926,128.34985 694.5926,116.49985 z M 539.9426,179.74985 C 538.7426,173.24985 533.8426,167.39985 528.2426,168.04985 C 514.3426,197.64985 502.5926,230.84985 474.3426,250.04985 C 471.3926,260.09985 477.2426,268.89985 483.7426,275.84985 C 495.7926,284.54985 507.4926,303.09985 525.8926,296.89985 C 539.6926,274.74985 553.3926,251.34985 556.3426,221.94985 C 553.3926,208.39985 568.9926,186.89985 549.3426,182.09985 C 541.6426,190.79985 551.4426,209.34985 537.5926,214.89985 C 527.9926,202.49985 542.6426,191.79985 539.9426,179.74985 z M 696.9426,210.24985 C 691.0426,199.59985 693.9426,184.94985 687.5926,175.09985 C 685.1926,174.19985 682.2426,175.19985 680.5426,177.44985 C 678.3426,193.74985 688.0926,208.39985 692.2426,224.29985 C 700.7926,237.64985 702.7426,259.14985 720.3926,264.09985 C 725.1926,264.04985 725.1926,259.14985 725.0426,254.74985 C 713.4926,241.54985 703.7426,226.94985 696.9426,210.24985 z M 671.1426,182.09985 C 668.5926,178.09985 665.6426,176.14985 661.7926,175.09985 C 658.7926,178.09985 656.8426,178.09985 654.7426,182.09985 C 657.8426,220.09985 664.6926,258.14985 682.8926,292.24985 C 691.9926,300.14985 699.7926,289.39985 706.2926,285.19985 C 709.5926,272.79985 699.7926,264.99985 694.5926,257.09985 C 679.2926,234.74985 676.3926,207.39985 671.1426,182.09985 z M 647.7426,193.84985 C 648.0926,185.94985 642.2426,172.24985 633.6926,182.09985 C 632.4426,210.34985 633.4426,240.59985 638.3426,266.44985 C 645.1426,275.74985 642.2426,290.39985 652.4426,294.59985 C 656.8426,293.29985 660.7426,290.39985 661.7926,287.54985 C 653.9426,255.24985 649.0426,223.99985 647.7426,193.84985 z M 619.5926,186.79985 C 619.7926,179.09985 609.0426,179.09985 603.1926,182.09985 C 589.4926,189.84985 587.5426,203.49985 586.7926,219.59985 C 586.5926,222.99985 589.4926,225.94985 593.8426,228.94985 C 601.1926,230.84985 613.8926,232.79985 619.5926,226.64985 L 619.5926,186.79985 z M 584.4926,243.04985 C 569.9926,235.69985 580.6926,215.19985 572.7426,205.54985 L 572.7426,207.89985 C 568.0426,245.49985 552.3926,276.69985 537.5926,310.99985 C 537.7426,316.74985 547.5426,324.54985 553.9926,327.39985 C 581.6926,337.24985 614.8926,331.39985 638.3426,320.34985 C 642.2426,297.19985 625.6426,279.64985 624.2926,257.09985 C 618.7926,241.54985 598.2926,247.44985 584.4926,243.04985" id="path4535" style="fill: rgb(0, 0, 0); fill-rule: nonzero; stroke: none;"/>
      <path d="M 225.9926,252.39985 C 229.2426,257.19985 237.0926,259.14985 242.3926,254.74985 C 250.7426,252.29985 256.5926,240.59985 265.8426,240.69985 C 271.2426,247.44985 266.3426,257.19985 272.8426,264.09985 C 281.9926,259.14985 291.7426,251.34985 303.3426,245.39985 C 308.3426,243.54985 310.2926,250.34985 310.3426,254.74985 C 305.4426,262.09985 305.4426,273.79985 305.6426,280.49985 C 318.0926,285.49985 326.8926,270.84985 338.4426,268.79985 C 342.4926,268.89985 345.4426,265.99985 347.8426,268.79985 C 355.1926,279.64985 337.6426,289.39985 347.8426,299.24985 C 357.1426,295.24985 366.9426,288.44985 375.9426,292.24985 C 377.6426,300.14985 364.9926,313.79985 375.9426,317.99985 C 382.5426,318.69985 389.3426,313.79985 392.3426,322.69985 C 387.4426,329.44985 381.5426,336.24985 380.6426,346.09985 C 383.4926,353.84985 394.2426,347.99985 394.6926,355.49985 C 388.3926,369.44985 382.5426,386.04985 385.3426,399.99985 C 387.4426,406.54985 399.1426,397.79985 401.7426,407.04985 C 393.2926,421.19985 382.5426,430.94985 380.6426,449.19985 C 377.6426,456.34985 390.3426,456.34985 385.3426,463.29985 C 365.9426,473.89985 363.9926,502.24985 340.7926,510.14985 C 333.6926,510.04985 326.8926,510.99985 322.0426,517.14985 C 319.0926,535.44985 319.0926,553.99985 333.7926,568.69985 C 333.6926,580.34985 338.5926,593.99985 333.7926,606.19985 C 312.2426,630.09985 330.7926,665.24985 340.7926,690.54985 C 350.2926,702.34985 359.0926,714.09985 368.8926,723.34985 C 376.6926,731.64985 376.6926,742.39985 375.9426,751.44985 C 371.7926,760.94985 365.9426,768.74985 357.1926,772.54985 C 343.4926,787.29985 331.7926,811.69985 310.3426,812.39985 C 296.6426,808.79985 285.8926,796.09985 272.8426,802.99985 C 267.3426,818.54985 258.5426,833.19985 244.7426,842.84985 C 217.5426,856.59985 183.3926,853.69985 155.6926,842.84985 C 134.5426,839.04985 134.5426,809.74985 111.1926,807.69985 C 81.8426,794.14985 38.8926,773.64985 36.1926,732.69985 C 41.7926,714.09985 59.3926,700.39985 68.9926,685.84985 C 83.7926,662.34985 108.1926,636.94985 97.1426,608.54985 C 102.3426,594.99985 88.6926,584.24985 92.4426,568.69985 L 104.1426,554.64985 C 104.2926,534.44985 104.2926,510.99985 80.7426,500.74985 C 69.1426,481.74985 52.5426,462.19985 29.1926,453.89985 C 22.2926,435.84985 54.5426,443.64985 50.2426,428.14985 C 45.7426,412.39985 28.1426,401.69985 29.1926,385.94985 C 34.0426,378.24985 48.6426,387.04985 50.2426,374.24985 C 49.6426,361.64985 35.9926,351.89985 40.8926,339.09985 C 47.6926,330.39985 59.3926,343.09985 64.2926,332.04985 L 52.5926,303.94985 C 60.3926,294.29985 74.0426,301.14985 83.0926,303.94985 C 92.5926,293.29985 80.8926,275.74985 92.4426,266.44985 C 103.3426,266.94985 112.0926,272.79985 120.5426,273.49985 C 126.7426,264.99985 117.9426,254.24985 125.2426,247.69985 C 139.4426,249.39985 147.2426,264.04985 162.7426,261.74985 C 165.7926,256.19985 168.7426,249.39985 174.4426,247.69985 C 184.3426,246.44985 188.2426,263.04985 197.8926,254.74985 C 203.8926,246.44985 202.8926,232.79985 214.2926,226.64985 C 221.4426,230.84985 220.4926,243.54985 225.9926,252.39985 z M 225.9926,278.19985 C 223.3926,270.84985 217.5426,255.24985 207.2426,264.09985 C 201.9426,273.79985 200.9426,288.44985 207.2426,299.24985 C 212.6926,298.19985 219.4926,303.09985 225.9926,299.24985 C 229.2426,293.29985 228.2926,283.54985 225.9926,278.19985 z M 193.1926,278.19985 C 189.2426,272.79985 187.2926,263.04985 179.1426,264.09985 C 171.6426,271.84985 175.5926,282.59985 172.0926,292.24985 C 175.5926,305.99985 177.5426,322.59985 193.1926,325.04985 C 199.9926,327.49985 201.9426,321.64985 200.2426,315.64985 C 195.0926,305.04985 190.1926,291.34985 193.1926,278.19985 z M 256.4426,275.84985 C 259.5426,257.19985 241.9426,270.84985 237.6926,278.19985 C 237.0926,293.29985 230.2426,305.99985 230.6926,322.69985 C 231.1926,325.54985 233.1926,331.39985 237.6926,332.04985 C 253.6926,317.69985 260.4926,296.24985 256.4426,275.84985 z M 291.5926,271.14985 C 282.9426,265.99985 279.0426,273.79985 275.1926,278.19985 C 269.2926,283.54985 264.3926,291.34985 268.1426,299.24985 C 273.1926,302.09985 277.0926,295.24985 282.2426,292.24985 C 288.7926,287.44985 291.7426,278.64985 291.5926,271.14985 z M 158.0426,278.19985 C 152.1426,274.74985 148.2426,269.89985 141.6426,271.14985 C 135.5426,290.39985 141.3926,308.94985 153.3426,325.04985 L 158.0426,325.04985 C 156.9926,316.74985 159.9426,310.89985 165.0926,306.29985 C 164.8426,296.24985 164.8426,285.49985 158.0426,278.19985 z M 132.2926,310.99985 C 126.7426,300.14985 118.9426,285.49985 104.1426,287.54985 C 98.4426,293.29985 100.3926,302.09985 101.7926,310.99985 C 107.2426,322.59985 118.9426,320.64985 127.5926,320.34985 C 132.5926,318.69985 133.5926,314.79985 132.2926,310.99985 z M 326.7426,296.89985 C 327.8426,293.29985 324.9426,291.34985 322.0426,292.24985 C 315.1926,295.24985 306.3926,297.19985 303.3426,303.94985 C 302.4926,312.84985 298.5926,323.59985 303.3426,332.04985 C 307.3426,333.34985 310.2926,330.39985 312.6926,327.39985 C 325.8926,323.59985 326.8926,308.94985 326.7426,296.89985 z M 291.5926,329.69985 C 290.7426,320.64985 293.6926,306.99985 286.8926,301.59985 C 280.0426,309.89985 269.2926,311.84985 265.8426,322.69985 C 263.4426,331.39985 265.3926,340.14985 268.1426,348.44985 C 277.0926,344.09985 289.7926,342.14985 291.5926,329.69985 z M 354.8426,327.39985 C 357.1426,320.64985 356.1926,302.09985 345.4926,313.29985 C 337.6426,318.69985 332.7426,326.49985 333.7926,334.39985 C 334.6926,339.19985 336.6426,346.99985 343.1426,346.09985 C 349.3426,342.14985 354.2426,335.29985 354.8426,327.39985 z M 92.4426,332.04985 C 91.5926,323.59985 79.8926,314.79985 73.6926,322.69985 C 78.8926,332.34985 77.9426,347.99985 87.7426,350.79985 C 100.3926,351.89985 93.5426,338.19985 92.4426,332.04985 z M 228.3426,357.84985 C 226.3426,344.09985 225.3426,330.39985 214.2926,322.69985 C 212.6926,318.69985 209.7426,321.64985 207.2426,322.69985 C 205.8426,337.24985 196.0426,350.89985 200.2426,367.19985 C 202.8926,379.24985 213.6426,362.64985 221.2926,371.89985 C 226.3426,369.44985 226.3426,362.64985 228.3426,357.84985 z M 193.1926,346.09985 C 190.1926,337.24985 184.3426,328.44985 174.4426,327.39985 C 168.7426,336.24985 170.6926,350.89985 169.7426,360.19985 C 171.6426,374.34985 175.5926,391.89985 190.8426,397.64985 C 197.0426,397.79985 198.0426,391.89985 197.8926,388.29985 C 191.1926,376.29985 188.2426,359.69985 193.1926,346.09985 z M 125.2426,343.79985 C 120.8926,336.24985 114.0426,332.34985 106.4926,332.04985 C 102.3426,333.34985 102.3426,338.19985 101.7926,343.79985 C 104.2926,355.79985 111.1426,369.44985 122.8926,374.24985 C 131.6426,365.54985 125.7926,352.84985 125.2426,343.79985 z M 256.4426,346.09985 L 251.7926,336.74985 C 231.1926,346.04985 236.0926,374.34985 228.3426,390.64985 L 233.0426,397.64985 C 235.1426,402.64985 240.9926,400.69985 244.7426,397.64985 C 261.4926,385.09985 259.5426,363.59985 256.4426,346.09985 z M 158.0426,343.79985 C 151.1426,339.19985 144.3426,337.24985 136.9426,339.09985 C 134.5426,339.19985 133.5926,343.09985 134.5926,346.09985 C 136.5426,356.74985 133.5926,371.39985 139.2926,381.24985 C 143.3426,387.04985 145.2926,396.79985 153.3426,395.34985 C 155.0426,387.04985 163.8426,386.04985 162.7426,378.94985 C 159.9426,367.49985 159.9426,355.79985 158.0426,343.79985 z M 368.8926,346.09985 C 362.9926,340.14985 359.0926,346.99985 354.8426,348.44985 C 348.3426,358.69985 331.7926,368.49985 338.4426,381.24985 C 349.3426,385.09985 353.2426,373.34985 361.8926,369.54985 C 368.8926,363.59985 368.8926,354.79985 368.8926,346.09985 z M 326.7426,357.84985 C 323.9426,351.89985 324.9426,343.09985 317.3926,343.79985 C 308.3426,346.99985 303.4426,356.74985 303.3426,364.84985 C 304.4426,371.39985 302.4926,382.14985 312.6926,381.24985 C 323.9426,378.24985 323.9426,365.54985 326.7426,357.84985 z M 87.7426,371.89985 L 71.3426,357.84985 C 68.1926,354.79985 63.2926,350.89985 59.6426,355.49985 C 63.2926,369.44985 62.3426,387.04985 73.6926,397.64985 C 76.9926,400.69985 83.7926,401.69985 87.7426,397.64985 C 88.6926,388.99985 92.5926,380.19985 87.7426,371.89985 z M 291.5926,360.19985 C 292.6926,355.79985 287.8426,349.94985 282.2426,353.14985 C 268.2926,355.79985 271.2426,370.44985 268.1426,378.94985 C 272.2426,384.09985 280.9926,389.94985 279.8926,397.64985 L 286.8926,392.99985 C 294.6926,384.09985 294.6926,372.39985 291.5926,360.19985 z M 122.8926,423.44985 C 124.7926,410.44985 117.9426,397.79985 115.8426,383.59985 L 106.4926,371.89985 C 103.3426,369.44985 99.4426,372.39985 99.4426,374.24985 C 96.4926,392.89985 98.4426,414.34985 113.5426,425.79985 C 117.9426,426.09985 121.8926,428.04985 122.8926,423.44985 z M 368.8926,388.29985 C 371.7926,370.44985 355.1926,388.99985 350.1926,392.99985 C 344.4926,399.74985 345.4426,407.54985 350.1926,416.39985 C 353.2426,416.29985 356.1926,415.34985 357.1926,414.04985 C 365.9426,408.49985 371.7926,399.74985 368.8926,388.29985 z M 326.7426,418.74985 C 332.7426,408.49985 326.8926,396.79985 322.0426,388.29985 L 315.0426,397.64985 C 306.3926,404.59985 314.1926,415.34985 317.3926,423.44985 C 321.9926,426.09985 323.9426,419.24985 326.7426,418.74985 z M 225.9926,404.69985 C 222.4426,399.74985 219.4926,391.89985 211.9426,392.99985 C 200.9426,400.69985 199.9926,413.39985 197.8926,428.14985 C 198.9926,431.94985 199.9926,438.79985 204.8926,439.84985 C 212.6926,434.89985 218.5426,449.49985 223.6426,442.19985 C 227.2926,428.99985 228.2926,417.29985 225.9926,404.69985 z M 303.3426,430.44985 C 300.5426,420.24985 304.4426,405.59985 296.2926,399.99985 C 283.9426,405.59985 274.1926,416.29985 275.1926,430.44985 C 278.0926,437.79985 275.1426,451.44985 286.8926,451.54985 C 293.6926,447.54985 303.4426,440.74985 303.3426,430.44985 z M 155.6926,414.04985 C 151.1426,404.59985 139.4426,398.74985 129.9426,404.69985 C 130.6426,419.24985 131.6426,433.89985 139.2926,444.54985 C 147.2426,452.44985 152.1426,440.74985 160.3926,442.19985 C 160.9426,433.89985 162.8926,421.19985 155.6926,414.04985 z M 101.7926,432.79985 L 87.7426,418.74985 C 78.8926,411.44985 68.1926,397.79985 54.9426,404.69985 C 54.5426,415.34985 61.3426,426.09985 68.9926,435.14985 C 82.8426,433.89985 93.5426,442.69985 106.4926,442.19985 C 105.2926,438.79985 104.2926,435.84985 101.7926,432.79985 z M 263.4926,439.84985 C 265.3926,428.99985 263.4426,414.34985 261.1426,404.69985 C 256.5926,399.74985 250.7426,406.54985 244.7426,407.04985 C 232.1926,414.34985 239.0426,428.04985 233.0426,439.84985 C 235.1426,448.54985 224.3926,458.29985 230.6926,467.94985 C 235.1426,469.04985 239.0426,466.09985 242.3926,463.29985 C 248.7926,457.34985 263.4426,451.44985 263.4926,439.84985 z M 190.8426,439.84985 C 186.2926,427.04985 193.1426,413.39985 179.1426,404.69985 C 177.5426,401.69985 170.6926,403.64985 169.7426,407.04985 L 172.0926,444.54985 C 178.4926,452.44985 185.3426,463.19985 197.8926,460.94985 C 197.0426,452.44985 192.1426,446.59985 190.8426,439.84985 z M 373.5926,428.14985 L 371.2426,423.44985 C 362.9926,424.14985 356.1926,429.99985 352.4926,437.49985 C 352.2426,441.69985 347.3926,446.59985 350.1926,451.54985 C 366.9426,456.34985 365.9426,437.79985 373.5926,428.14985 z M 338.4426,435.14985 C 342.4926,424.14985 326.8926,428.04985 324.3926,435.14985 C 318.0926,440.74985 319.0926,450.49985 322.0426,456.24985 C 322.9926,460.24985 326.8926,461.24985 329.0926,458.59985 C 339.5926,456.34985 339.5926,444.64985 338.4426,435.14985 z M 148.6926,470.29985 C 142.3926,460.24985 131.6426,451.44985 120.5426,446.84985 C 115.0426,463.19985 120.8926,480.74985 127.5926,496.09985 C 133.5926,501.24985 142.3926,505.14985 150.9926,505.44985 C 153.0926,495.39985 151.1426,481.74985 148.6926,470.29985 z M 108.8426,463.29985 C 101.3926,458.29985 94.5426,451.44985 85.3926,449.19985 C 77.9426,448.54985 66.2426,444.64985 61.9926,451.54985 C 77.9426,465.14985 82.8426,491.49985 104.1426,496.09985 C 116.9926,490.49985 109.1926,471.94985 108.8426,463.29985 z M 310.3426,465.59985 L 307.9926,451.54985 C 302.4926,448.54985 298.5926,455.34985 293.9426,456.24985 C 284.8926,468.04985 276.1426,477.84985 279.8926,491.39985 C 280.9926,497.34985 286.8426,499.29985 291.5926,498.39985 C 305.4426,493.44985 310.2926,478.79985 310.3426,465.59985 z M 268.1426,474.99985 C 271.2426,451.44985 250.7426,468.04985 244.7426,474.99985 C 231.1926,481.74985 240.9926,497.34985 237.6926,512.49985 L 240.0426,514.79985 C 250.7426,517.84985 259.5426,510.04985 263.4926,503.09985 C 270.2426,494.44985 268.2926,483.69985 268.1426,474.99985 z M 225.9926,481.99985 C 221.4426,475.84985 220.4926,465.14985 211.9426,463.29985 C 207.7926,471.94985 198.9926,477.84985 197.8926,486.69985 C 198.0426,497.34985 196.0426,510.04985 202.5926,517.14985 C 209.7426,520.79985 217.5426,519.79985 223.6426,514.79985 C 228.2926,505.14985 226.3426,493.44985 225.9926,481.99985 z M 186.1426,474.99985 C 180.4426,468.04985 173.6426,463.19985 165.0926,465.59985 C 158.9926,477.84985 164.8426,493.44985 167.3926,507.79985 C 172.6426,511.99985 178.4926,521.74985 186.1426,521.84985 C 198.9926,519.79985 185.3426,509.04985 188.4926,500.74985 C 185.3426,491.49985 193.1426,481.74985 186.1426,474.99985 z M 357.1926,467.94985 C 350.2926,465.14985 341.5426,469.04985 333.7926,470.29985 C 324.9426,474.89985 318.0926,483.69985 317.3926,493.74985 C 317.1426,499.29985 321.9926,498.34985 324.3926,500.74985 C 340.5426,498.34985 352.2426,482.69985 357.1926,467.94985 z M 310.3426,510.14985 C 310.2926,504.19985 305.4426,507.09985 303.3426,505.44985 C 286.8426,511.99985 291.7426,530.54985 286.8926,542.94985 C 284.8926,551.04985 279.0426,564.69985 289.2426,571.04985 C 293.6926,567.64985 299.5426,566.64985 303.3426,561.69985 C 307.3426,545.19985 302.4926,525.64985 310.3426,510.14985 z M 141.6426,528.89985 C 143.3426,515.89985 126.7426,514.94985 118.2426,507.79985 C 115.0426,511.99985 118.9426,516.89985 120.5426,521.84985 C 124.7926,539.34985 114.0426,557.89985 132.2926,571.04985 C 134.5426,573.49985 139.4426,575.44985 141.6426,573.39985 C 146.2926,556.89985 139.4426,546.14985 141.6426,528.89985 z M 279.8926,533.54985 C 280.9926,525.64985 284.8926,515.89985 277.5426,510.14985 L 251.7926,528.89985 L 251.7926,533.54985 C 261.4926,544.19985 263.4426,558.84985 268.1426,573.39985 C 271.2426,572.54985 273.1926,572.54985 275.1926,571.04985 C 278.0926,558.84985 275.1426,544.19985 279.8926,533.54985 z M 179.1426,535.89985 C 168.7426,531.49985 165.7926,521.74985 155.6926,517.14985 C 153.0926,516.89985 151.1426,520.79985 150.9926,524.19985 C 155.0426,537.39985 153.0926,549.09985 153.3426,561.69985 C 151.1426,571.54985 150.1926,580.34985 155.6926,587.44985 C 157.9926,589.09985 164.8426,590.09985 165.0926,585.09985 C 157.9926,566.64985 174.5926,552.99985 179.1426,535.89985 z M 249.4426,547.59985 C 236.0926,532.49985 216.5926,528.59985 197.8926,535.89985 C 189.2426,539.34985 183.3926,549.09985 179.1426,559.34985 C 179.4926,572.54985 169.6926,590.09985 183.7926,599.14985 C 186.2926,601.79985 190.1926,602.79985 190.8426,599.14985 C 191.1926,587.14985 192.1426,568.59985 209.5926,561.69985 C 218.5426,561.79985 229.2426,564.69985 233.0426,573.39985 C 237.0926,585.19985 245.8426,577.39985 251.7926,575.74985 C 258.5426,566.64985 250.7426,555.94985 249.4426,547.59985 z M 315.0426,585.09985 C 317.1426,581.29985 321.9926,574.49985 315.0426,571.04985 C 302.4926,582.29985 285.8926,586.19985 270.4926,594.49985 C 238.0426,607.64985 185.3426,604.74985 179.1426,650.69985 C 181.4426,653.54985 183.3926,660.39985 190.8426,657.74985 C 205.8426,644.74985 224.3926,636.94985 244.7426,634.29985 C 266.3426,627.19985 289.7926,623.29985 310.3426,608.54985 C 312.2426,607.64985 316.1426,601.79985 310.3426,599.14985 C 307.3426,594.99985 312.2426,589.09985 315.0426,585.09985 z M 176.7926,613.24985 C 152.1426,604.74985 133.5926,583.24985 111.1926,575.74985 C 103.3426,584.24985 116.9926,589.09985 118.2426,596.84985 C 119.9426,603.74985 108.1926,599.84985 111.1926,608.54985 C 123.8426,627.19985 144.3426,633.04985 162.7426,638.99985 C 172.6426,639.89985 173.6426,629.14985 179.1426,624.94985 C 180.4426,621.34985 180.4426,614.49985 176.7926,613.24985 z M 225.9926,587.44985 C 225.3426,579.34985 216.5926,574.49985 209.5926,578.09985 C 205.8426,581.29985 200.9426,586.19985 202.5926,592.14985 C 204.8426,594.99985 206.7926,597.89985 209.5926,596.84985 C 215.5926,594.99985 223.3926,593.99985 225.9926,587.44985 z M 310.3426,657.74985 C 307.3426,650.64985 312.2426,635.99985 300.9926,634.29985 C 294.6926,634.99985 290.7426,641.84985 291.5926,648.34985 C 299.5426,675.99985 308.3426,703.34985 319.6926,730.39985 C 327.8426,739.44985 336.6426,757.99985 350.1926,756.14985 C 357.1426,751.19985 358.1426,745.29985 357.1926,739.74985 C 337.6426,715.04985 318.0926,687.74985 310.3426,657.74985 z M 129.9426,641.34985 C 125.7926,637.94985 121.8926,634.04985 115.8426,634.29985 C 105.2926,659.39985 90.6426,684.79985 76.0426,709.29985 C 71.0926,717.99985 59.3926,725.79985 57.2926,735.04985 C 59.3926,764.84985 88.6926,780.44985 111.1926,788.94985 C 117.9426,790.24985 127.7426,795.09985 132.2926,786.59985 C 151.1426,748.24985 161.8926,704.29985 169.7426,662.44985 C 165.7926,651.59985 155.0426,650.64985 146.3426,648.34985 C 138.4926,651.59985 140.4426,663.29985 134.5926,669.44985 C 130.6426,677.94985 131.6426,689.69985 122.8926,695.24985 C 115.9926,688.69985 126.7426,678.94985 125.2426,669.44985 C 126.7426,660.39985 132.5926,650.64985 129.9426,641.34985 z M 284.5926,648.34985 C 280.0426,635.99985 265.3926,643.79985 258.7926,648.34985 C 264.3926,695.54985 278.0926,739.44985 296.2926,781.94985 C 296.6426,793.14985 309.3426,793.14985 315.0426,791.29985 C 322.9926,786.34985 334.6926,778.49985 333.7926,770.19985 C 306.3926,733.59985 289.7926,692.59985 284.5926,648.34985 z M 249.4426,650.69985 C 247.7926,647.69985 243.8926,649.64985 240.0426,650.69985 C 238.0426,670.14985 243.8926,689.69985 242.3926,709.29985 L 254.0926,765.49985 C 260.4926,771.69985 258.5426,784.34985 268.1426,784.24985 C 273.1926,785.34985 279.0426,783.39985 277.5426,779.59985 C 275.1426,754.09985 263.4426,733.59985 258.7926,709.29985 C 255.6426,689.69985 253.6926,671.14985 249.4426,650.69985 z M 228.3426,660.09985 C 223.3926,644.74985 207.7926,660.39985 200.2426,667.09985 C 196.0426,679.89985 199.9926,694.54985 204.8926,704.59985 C 211.6926,709.19985 220.4926,707.24985 225.9926,702.24985 C 235.1426,690.64985 226.3426,675.99985 228.3426,660.09985 z M 186.1426,683.49985 C 187.2926,677.94985 180.4426,672.09985 179.1426,678.84985 C 171.6426,706.24985 169.6926,733.59985 158.0426,760.84985 C 151.1426,775.59985 143.3426,790.24985 139.2926,807.69985 C 141.3926,815.59985 149.1926,822.44985 158.0426,826.44985 C 179.4926,834.14985 205.8426,839.04985 228.3426,828.79985 C 239.0426,823.39985 249.7426,813.64985 251.7926,802.99985 C 244.8926,778.49985 238.0426,754.09985 235.3426,728.04985 C 228.2926,715.04985 211.6926,722.84985 197.8926,720.99985 C 184.3426,712.14985 191.1926,694.54985 186.1426,683.49985" id="path4537" style="fill: rgb(0, 0, 0); fill-rule: nonzero; stroke: none;"/>
      <path d="M 908.3926,-407.25015 C 907.1926,-408.10015 903.9426,-408.65015 901.3926,-409.10015 C 894.9426,-410.10015 886.1426,-411.50015 880.1426,-419.45015 L 877.5426,-422.95015 L 877.5426,-518.65015 C 877.4926,-533.05015 886.6426,-540.45015 904.7426,-540.70015 C 906.8426,-540.70015 909.9426,-540.80015 911.4426,-541.20015 C 913.0426,-546.95015 913.6426,-551.40015 913.1426,-554.25015 C 911.9926,-555.70015 909.8426,-556.65015 903.6926,-558.50015 C 898.2426,-560.10015 891.4426,-562.15015 885.1426,-566.75015 L 882.0426,-569.05015 L 880.6926,-572.75015 C 877.1926,-582.20015 877.8426,-591.80015 878.4426,-600.35015 C 879.0426,-609.20015 879.0926,-614.55015 877.1426,-618.30015 C 829.9426,-620.25015 778.2426,-620.25015 733.6926,-618.20015 C 730.0926,-617.10015 726.7426,-615.65015 723.3426,-614.00015 C 719.4926,-612.20015 715.5426,-610.35015 711.1426,-609.15015 L 708.2426,-608.40015 L 705.3426,-608.95015 C 698.0926,-610.35015 691.9926,-613.00015 686.5926,-615.35015 C 684.0926,-616.45015 681.7926,-617.35015 679.5426,-618.15015 L 597.3426,-619.40015 L 529.0926,-620.40015 C 526.1426,-617.75015 525.6926,-613.15015 526.8426,-600.60015 C 527.5926,-592.25015 528.3926,-583.60015 525.6926,-575.45015 L 524.9926,-573.45015 L 523.7426,-571.80015 C 514.9926,-560.05015 502.0926,-560.30015 494.4426,-560.40015 C 488.6926,-560.50015 486.5926,-560.35015 485.5426,-559.20015 L 484.6926,-558.20015 L 483.5926,-557.40015 C 479.7426,-554.55015 478.2426,-552.35015 477.5926,-551.05015 C 478.3426,-548.55015 479.4926,-545.80015 481.2426,-545.35015 L 482.2426,-545.10015 L 483.1926,-544.75015 C 485.5926,-543.75015 489.8926,-543.25015 494.0426,-542.80015 C 501.1926,-542.05015 509.3426,-541.20015 516.9426,-537.25015 L 523.3926,-533.95015 L 523.9426,-526.70015 C 525.4926,-506.35015 524.9426,-487.55015 524.3426,-469.35015 C 523.8926,-455.20015 523.4426,-441.85015 523.9926,-427.75015 L 524.2926,-419.40015 L 516.7926,-415.65015 L 512.0926,-413.30015 L 510.3426,-412.40015 L 508.3926,-412.10015 C 503.6926,-411.35015 499.0426,-411.15015 494.4926,-411.00015 C 481.8426,-410.55015 479.5926,-409.65015 478.6926,-406.45015 C 476.8926,-401.40015 477.4926,-397.45015 478.0926,-396.30015 C 484.1926,-393.25015 491.6426,-391.95015 498.9426,-390.85015 C 503.2926,-390.15015 507.7926,-389.45015 511.9926,-388.30015 L 520.0926,-386.15015 L 521.4426,-377.85015 L 526.1926,-349.75015 L 526.2926,-348.90015 L 526.3426,-348.05015 C 526.4426,-344.90015 526.1926,-341.90015 525.9426,-339.00015 C 525.4926,-333.95015 525.5426,-331.55015 525.9426,-330.15015 C 551.1926,-330.40015 576.1926,-329.75015 600.3926,-329.00015 C 625.3926,-328.30015 651.2426,-327.50015 677.1926,-327.85015 L 681.7426,-327.90015 L 685.3426,-325.10015 L 703.8426,-310.70015 C 713.3926,-308.60015 723.2926,-312.20015 730.6926,-320.90015 L 734.1426,-325.00015 L 739.5426,-325.45015 C 771.7926,-328.10015 808.0426,-328.10015 839.1926,-325.50015 C 846.0426,-326.55015 852.8926,-326.40015 859.0426,-326.05015 C 867.8426,-325.60015 873.3926,-325.85015 877.0426,-328.00015 C 879.1926,-334.75015 878.9926,-341.30015 878.1926,-349.35015 C 877.4926,-356.10015 876.6926,-363.80015 877.5926,-372.40015 L 877.9926,-376.05015 L 880.1926,-378.95015 C 889.0426,-390.50015 901.7926,-390.50015 909.4426,-390.50015 C 910.1926,-390.50015 911.1426,-390.50015 912.0426,-390.55015 C 912.6426,-397.60015 910.4926,-403.45015 908.3926,-407.25015" id="path4539" style="fill: rgb(255, 255, 255); fill-rule: nonzero; stroke: none;"/>
      <path d="M 707.7926,-621.75015 C 714.7926,-623.60015 721.5926,-628.50015 731.2426,-631.10015 C 778.2426,-633.35015 833.8926,-633.35015 883.5426,-631.10015 C 899.2926,-616.75015 886.5926,-594.30015 892.8926,-577.25015 C 904.1426,-568.95015 919.7926,-571.85015 925.6926,-558.50015 C 927.5926,-551.35015 925.6426,-542.55015 923.3426,-535.05015 C 915.8926,-520.10015 890.4926,-535.75015 890.5426,-518.65015 L 890.5426,-427.30015 C 896.3426,-419.55015 910.9926,-424.45015 918.6426,-415.55015 C 924.6926,-405.90015 927.5926,-393.20015 923.3426,-380.45015 C 914.8926,-373.70015 899.2926,-382.45015 890.5426,-371.05015 C 888.5426,-352.20015 896.3426,-337.55015 888.1926,-319.50015 C 875.8426,-307.30015 855.3426,-316.10015 838.9926,-312.50015 C 808.4926,-315.10015 772.3426,-315.10015 740.5926,-312.50015 C 730.3926,-300.45015 714.7926,-293.65015 698.3926,-298.40015 L 677.3426,-314.80015 C 623.9926,-314.15015 573.1926,-318.05015 520.3426,-317.15015 C 508.7926,-324.85015 513.6426,-337.55015 513.3426,-347.60015 L 508.6426,-375.75015 C 498.0426,-378.55015 483.3926,-378.55015 471.1426,-385.10015 C 463.8926,-389.30015 462.8926,-401.00015 466.4426,-410.90015 C 470.6926,-427.35015 491.1926,-422.50015 506.2926,-424.95015 L 510.9926,-427.30015 C 509.7426,-460.55015 513.6426,-490.85015 510.9926,-525.70015 C 500.9926,-530.85015 487.2926,-528.90015 478.1926,-532.70015 C 469.7426,-534.75015 465.8426,-542.55015 464.1426,-551.45015 C 464.8426,-558.20015 470.6926,-564.05015 475.8426,-567.85015 C 486.3426,-579.65015 503.8926,-567.00015 513.3426,-579.60015 C 518.5426,-595.30015 503.8926,-622.60015 525.0426,-633.45015 C 577.0926,-632.40015 630.7926,-632.40015 681.9926,-631.10015 C 690.3426,-628.50015 698.1926,-623.60015 707.7926,-621.75015 z" id="path4541" style="fill: rgb(0, 0, 0); fill-rule: nonzero; stroke: rgb(0, 0, 0); stroke-width: 3; stroke-linecap: square; stroke-linejoin: miter; stroke-miterlimit: 2;"/>
      <path d="M 691.3926,-610.05015 C 660.0926,-622.60015 622.0426,-613.85015 585.9426,-619.40015 C 576.1426,-619.70015 570.2926,-611.90015 571.8926,-603.00015 C 573.1926,-545.50015 572.2426,-491.80015 571.8926,-431.95015 C 573.1926,-419.55015 573.1926,-402.00015 571.8926,-389.80015 C 574.1926,-376.60015 595.6426,-385.40015 604.6926,-382.75015 C 636.6926,-378.55015 669.8426,-384.40015 696.0926,-368.70015 L 700.7426,-371.05015 L 700.7426,-450.70015 C 704.0426,-458.60015 702.0926,-470.35015 698.3926,-478.85015 C 695.2426,-481.05015 691.3426,-477.15015 689.0426,-474.15015 C 683.5426,-466.40015 690.3426,-458.60015 696.0926,-453.05015 C 692.3426,-443.00015 680.5926,-446.90015 672.6426,-446.00015 C 668.8926,-445.90015 663.9926,-446.90015 665.5926,-450.70015 C 680.5926,-469.35015 682.5426,-497.65015 691.3926,-516.30015 C 696.2426,-531.85015 704.0426,-547.45015 700.7426,-563.20015 L 700.7426,-598.30015 C 702.0926,-604.10015 697.1926,-608.00015 691.3926,-610.05015" id="path4543" style="fill: rgb(255, 255, 255); fill-rule: nonzero; stroke: none;"/>
      <path d="M 543.7926,-617.05015 C 539.0426,-615.80015 533.1926,-619.70015 527.3926,-614.75015 C 522.4426,-602.10015 527.3426,-587.50015 522.6926,-574.90015 C 521.4426,-551.35015 496.0926,-563.05015 480.4926,-558.50015 C 478.5426,-555.25015 476.5926,-551.35015 478.1926,-546.75015 C 491.1926,-536.70015 511.6926,-548.45015 522.6926,-535.05015 C 528.2926,-509.40015 522.4426,-482.05015 527.3926,-455.40015 L 522.6926,-420.25015 C 515.5926,-402.00015 489.2426,-413.70015 478.1926,-406.20015 C 474.5926,-404.90015 475.5926,-398.10015 478.1926,-396.80015 C 483.3926,-389.30015 495.0926,-392.20015 501.5926,-392.15015 C 532.1926,-387.35015 522.4426,-354.15015 527.3926,-333.55015 L 653.8926,-328.85015 L 677.3426,-331.20015 L 677.3426,-333.55015 C 636.6926,-347.30015 591.7426,-341.45015 550.7926,-342.95015 C 543.9426,-342.45015 537.0926,-345.35015 536.7426,-352.30015 C 532.1926,-388.30015 536.0926,-421.50015 532.0426,-460.10015 C 533.1926,-472.30015 536.0926,-489.85015 532.0426,-502.25015 L 534.3926,-588.95015 C 536.0926,-599.20015 545.8926,-607.00015 543.7926,-617.05015" id="path4545" style="fill: rgb(255, 255, 255); fill-rule: nonzero; stroke: none;"/>
      <path d="M 717.1426,-478.85015 C 715.7426,-477.15015 713.7926,-477.15015 714.8426,-474.15015 L 714.8426,-371.05015 L 717.1426,-371.05015 C 747.9926,-386.35015 783.0926,-382.45015 817.8926,-380.45015 C 836.7926,-382.45015 824.0926,-402.95015 829.6426,-413.20015 C 826.0426,-476.20015 828.9926,-551.35015 829.6426,-612.40015 L 824.9426,-614.75015 C 792.8426,-614.80015 760.6426,-618.70015 728.8926,-612.40015 C 703.0426,-605.05015 716.7426,-578.70015 714.8426,-560.85015" id="path4547" style="fill: rgb(255, 255, 255); fill-rule: nonzero; stroke: none;"/>
      <path d="M 876.4926,-610.05015 L 871.7926,-614.75015 C 865.0926,-615.80015 855.3426,-616.75015 848.3926,-614.75015 C 851.4426,-603.10015 869.9926,-595.30015 867.0926,-579.60015 C 868.9926,-503.50015 864.1426,-425.40015 867.0926,-349.95015 L 860.0926,-342.95015 C 824.0926,-340.50015 787.9926,-339.50015 749.9426,-340.60015 L 738.2426,-333.55015 C 737.2426,-332.70015 737.2426,-330.70015 738.2426,-331.20015 C 782.1426,-328.75015 825.0926,-330.70015 871.7926,-331.20015 C 882.6926,-344.40015 870.9926,-364.90015 881.1926,-380.45015 C 883.6426,-395.15015 903.1926,-387.35015 911.6426,-394.50015 C 918.7926,-416.65015 885.5926,-400.05015 878.8426,-415.55015 C 875.8426,-455.70015 875.8426,-492.80015 878.8426,-532.70015 C 883.6426,-551.35015 908.0926,-533.80015 913.9926,-551.45015 C 910.0426,-564.05015 896.3426,-555.25015 885.8426,-556.15015 C 879.7426,-558.20015 872.9426,-563.05015 874.1426,-570.20015 C 877.7926,-582.60015 876.8426,-597.25015 876.4926,-610.05015" id="path4549" style="fill: rgb(255, 255, 255); fill-rule: nonzero; stroke: none;"/>
      <path d="M 560.1926,-572.55015 C 557.5926,-581.60015 562.4926,-595.30015 555.4926,-603.00015 L 548.4426,-593.65015 C 541.9926,-517.20015 547.8426,-446.90015 546.1426,-371.05015 C 548.7926,-366.85015 551.7426,-369.75015 553.1426,-371.05015 C 556.6426,-376.60015 563.4426,-384.40015 560.1926,-392.15015 C 558.5926,-405.90015 560.5426,-419.55015 557.8426,-434.30015 C 559.4426,-476.00015 558.4426,-522.10015 560.1926,-572.55015" id="path4551" style="fill: rgb(255, 255, 255); fill-rule: nonzero; stroke: none;"/>
      <path d="M 853.0426,-584.25015 C 853.3926,-589.45015 849.4926,-593.35015 843.6926,-593.65015 C 840.6926,-525.95015 840.6926,-462.50015 841.3426,-389.80015 C 841.6926,-383.45015 840.6926,-374.65015 848.3926,-373.40015 C 854.3926,-381.50015 850.4926,-395.15015 853.0426,-403.85015 C 852.4426,-464.45015 855.3426,-522.05015 853.0426,-584.25015" id="path4553" style="fill: rgb(255, 255, 255); fill-rule: nonzero; stroke: none;"/>
      <path d="M 667.9426,-553.80015 C 648.3926,-549.40015 624.9426,-553.30015 602.3426,-553.80015 C 598.5926,-545.50015 590.7926,-534.75015 597.6426,-525.70015 C 604.4426,-529.90015 611.2926,-537.70015 618.7426,-542.10015 C 622.9926,-541.60015 624.9426,-538.65015 625.7926,-535.05015 C 622.0426,-506.45015 629.8426,-478.15015 616.3926,-450.70015 C 617.1426,-446.90015 623.9926,-446.90015 625.7926,-446.00015 C 634.7426,-446.90015 648.3926,-444.95015 649.1926,-453.05015 C 633.7426,-474.25015 648.3926,-498.65015 642.1926,-521.00015 C 644.4926,-526.95015 639.5926,-540.60015 649.1926,-539.75015 C 655.2426,-540.60015 658.1426,-537.70015 660.9426,-532.70015 C 662.0426,-528.90015 667.8926,-527.95015 670.2926,-532.70015 C 671.8426,-538.65015 673.7926,-548.45015 667.9426,-553.80015" id="path4555" style="fill: rgb(0, 0, 0); fill-rule: nonzero; stroke: none;"/>
      <path d="M 717.1426,-497.55015 C 713.7926,-505.50015 712.8426,-517.20015 705.4426,-523.35015 C 699.1426,-515.25015 698.1926,-504.50015 696.0926,-495.25015 C 694.2926,-491.80015 699.1426,-490.85015 700.7426,-490.55015 C 706.9426,-491.80015 716.7426,-488.90015 717.1426,-497.55015" id="path4557" style="fill: rgb(255, 255, 255); fill-rule: nonzero; stroke: none;"/>
      <path d="M 717.1426,-497.55015 C 713.7926,-505.50015 712.8426,-517.20015 705.4426,-523.35015 C 699.1426,-515.25015 698.1926,-504.50015 696.0926,-495.25015 C 694.2926,-491.80015 699.1426,-490.85015 700.7426,-490.55015 C 706.9426,-491.80015 716.7426,-488.90015 717.1426,-497.55015 z" id="path4559" style="fill: none; stroke: rgb(0, 0, 0); stroke-width: 3.75; stroke-linecap: square; stroke-linejoin: miter; stroke-miterlimit: 2;"/>
      <path d="M 686.6926,-354.65015 C 658.1426,-367.80015 621.0426,-367.80015 588.2926,-366.35015 C 580.0426,-365.85015 564.4426,-372.70015 562.5426,-359.35015 C 570.2926,-351.20015 584.9426,-356.10015 595.3426,-354.65015 C 615.1926,-354.15015 636.6926,-357.10015 656.2426,-352.30015 C 666.9426,-349.25015 680.5926,-346.35015 689.0426,-352.30015 L 686.6926,-354.65015" id="path4561" style="fill: rgb(255, 255, 255); fill-rule: nonzero; stroke: none;"/>
      <path d="M 843.6926,-357.00015 C 839.7426,-365.85015 829.9926,-369.75015 817.8926,-368.70015 C 787.0426,-363.90015 755.7926,-367.80015 726.5426,-357.00015 C 721.5926,-356.10015 725.4926,-350.25015 728.8926,-347.60015 C 764.5426,-359.05015 805.5426,-350.25015 843.6926,-354.65015 L 843.6926,-357.00015" id="path4563" style="fill: rgb(255, 255, 255); fill-rule: nonzero; stroke: none;"/>
      <path d="M 721.8426,-333.55015 C 718.6926,-340.50015 713.7926,-344.40015 707.7926,-345.30015 C 703.0426,-342.45015 700.1426,-340.50015 696.0926,-335.90015 C 693.2926,-331.70015 691.3426,-327.80015 693.7426,-321.85015 C 696.2426,-319.00015 698.1926,-316.10015 703.0926,-314.80015 C 707.9426,-312.15015 716.7426,-313.15015 721.8426,-317.15015 C 722.5926,-323.90015 724.5426,-329.75015 721.8426,-333.55015" id="path4565" style="fill: rgb(255, 255, 255); fill-rule: nonzero; stroke: none;"/>
      <path d="M 714.8426,-560.85015 C 728.4426,-535.75015 734.2926,-507.45015 742.9426,-481.15015 C 748.9426,-474.25015 749.8926,-460.55015 761.6926,-462.45015 C 764.5426,-491.80015 780.1926,-453.75015 794.4926,-460.10015 C 801.6426,-461.55015 804.5926,-469.35015 803.8426,-474.15015 C 801.6426,-491.80015 783.0926,-492.80015 773.3926,-504.60015 C 768.4426,-511.35015 762.5926,-521.10015 764.0426,-530.35015 C 765.5426,-538.65015 771.3926,-548.45015 778.0926,-553.80015 C 788.9926,-557.20015 799.6926,-552.35015 808.5426,-551.45015 C 817.2926,-548.45015 815.3426,-539.65015 817.8926,-532.70015 C 807.5426,-515.25015 801.6426,-546.45015 787.4426,-544.45015 C 782.1426,-542.55015 778.2426,-539.65015 778.0926,-532.70015 C 781.1426,-513.30015 803.5926,-512.30015 813.2426,-497.55015 C 818.2426,-488.90015 822.1426,-479.10015 817.8926,-469.45015 C 811.4426,-457.65015 801.6426,-445.90015 787.4426,-446.00015 C 767.4926,-446.90015 747.9926,-445.90015 728.8926,-448.35015 C 721.5926,-451.80015 729.3926,-456.65015 728.8926,-462.45015 C 727.4426,-469.35015 725.4926,-478.15015 717.1426,-478.85015" id="path4567" style="fill: rgb(0, 0, 0); fill-rule: nonzero; stroke: none;"/>
    </g>
  </g>
</svg>